<svg xmlns="http://www.w3.org/2000/svg" viewBox="0 0 1440 900" width="1440" height="900"><defs><radialGradient id="viggf" cx="50%" cy="46%" r="72%"><stop offset="0%" stop-color="#242424"></stop><stop offset="100%" stop-color="#141414"></stop></radialGradient><radialGradient id="dustgf" cx="50%" cy="50%" r="50%"><stop offset="0%" stop-color="#FFFFFF" stop-opacity="0.06"></stop><stop offset="100%" stop-color="#FFFFFF" stop-opacity="0"></stop></radialGradient><linearGradient id="fxgf"><stop offset="0%" stop-color="#FFFFFF" stop-opacity="0"></stop><stop offset="50%" stop-color="#FFFFFF" stop-opacity="0.92"></stop><stop offset="100%" stop-color="#FFFFFF" stop-opacity="0"></stop></linearGradient><linearGradient id="fygf" x1="0" y1="0" x2="0" y2="1"><stop offset="0%" stop-color="#FFFFFF" stop-opacity="0"></stop><stop offset="50%" stop-color="#FFFFFF" stop-opacity="0.92"></stop><stop offset="100%" stop-color="#FFFFFF" stop-opacity="0"></stop></linearGradient><filter id="fhgf" x="-300%" y="-300%" width="700%" height="700%"><feGaussianBlur stdDeviation="3.5"></feGaussianBlur></filter></defs><rect x="0" y="0" width="1440" height="900" fill="url(#viggf)"></rect><defs><radialGradient id="nbgf0"><stop offset="0%" stop-color="#5FBE7C" stop-opacity="0.20"></stop><stop offset="55%" stop-color="#5FBE7C" stop-opacity="0.08"></stop><stop offset="100%" stop-color="#5FBE7C" stop-opacity="0"></stop></radialGradient><radialGradient id="nbgf1"><stop offset="0%" stop-color="#5FBE7C" stop-opacity="0.12"></stop><stop offset="55%" stop-color="#5FBE7C" stop-opacity="0.05"></stop><stop offset="100%" stop-color="#5FBE7C" stop-opacity="0"></stop></radialGradient><radialGradient id="nbgf2"><stop offset="0%" stop-color="#8FA6C8" stop-opacity="0.10"></stop><stop offset="55%" stop-color="#8FA6C8" stop-opacity="0.04"></stop><stop offset="100%" stop-color="#8FA6C8" stop-opacity="0"></stop></radialGradient></defs><ellipse cx="921" cy="151" rx="751" ry="215" fill="url(#nbgf0)" transform="rotate(-29 921 151)"></ellipse><ellipse cx="325" cy="308" rx="423" ry="235" fill="url(#nbgf1)" transform="rotate(-12 325 308)"></ellipse><ellipse cx="1178" cy="211" rx="704" ry="217" fill="url(#nbgf2)" transform="rotate(2 1178 211)"></ellipse><g fill="#fff" fill-opacity="0.21"><circle cx="-5" cy="84" r="0.5"/><circle cx="33" cy="334" r="0.5"/><circle cx="76" cy="164" r="0.5"/><circle cx="99" cy="241" r="0.8"/><circle cx="103" cy="316" r="0.7"/><circle cx="105" cy="207" r="0.4"/><circle cx="111" cy="242" r="0.7"/><circle cx="122" cy="34" r="0.4"/><circle cx="127" cy="170" r="0.5"/><circle cx="162" cy="166" r="0.5"/><circle cx="169" cy="357" r="0.7"/><circle cx="181" cy="143" r="0.6"/><circle cx="194" cy="283" r="0.4"/><circle cx="241" cy="386" r="0.8"/><circle cx="250" cy="368" r="0.6"/><circle cx="270" cy="336" r="0.7"/><circle cx="274" cy="269" r="0.7"/><circle cx="279" cy="171" r="0.7"/><circle cx="288" cy="272" r="0.4"/><circle cx="291" cy="306" r="0.7"/><circle cx="312" cy="164" r="0.6"/><circle cx="317" cy="310" r="0.8"/><circle cx="328" cy="96" r="0.5"/><circle cx="345" cy="5" r="0.6"/><circle cx="349" cy="210" r="0.7"/><circle cx="351" cy="83" r="0.5"/><circle cx="369" cy="263" r="0.5"/><circle cx="371" cy="103" r="0.7"/><circle cx="372" cy="113" r="0.7"/><circle cx="375" cy="230" r="0.4"/><circle cx="383" cy="62" r="0.4"/><circle cx="389" cy="137" r="0.6"/><circle cx="411" cy="187" r="0.4"/><circle cx="419" cy="386" r="0.7"/><circle cx="422" cy="354" r="0.4"/><circle cx="436" cy="327" r="0.7"/><circle cx="438" cy="49" r="0.7"/><circle cx="441" cy="366" r="0.4"/><circle cx="442" cy="201" r="0.8"/><circle cx="449" cy="328" r="0.6"/><circle cx="450" cy="41" r="0.7"/><circle cx="473" cy="92" r="0.8"/><circle cx="477" cy="352" r="0.7"/><circle cx="481" cy="18" r="0.5"/><circle cx="488" cy="41" r="0.4"/><circle cx="493" cy="211" r="0.6"/><circle cx="494" cy="60" r="0.5"/><circle cx="520" cy="8" r="0.6"/><circle cx="539" cy="378" r="0.7"/><circle cx="560" cy="304" r="0.5"/><circle cx="562" cy="323" r="0.6"/><circle cx="570" cy="183" r="0.5"/><circle cx="594" cy="184" r="0.4"/><circle cx="627" cy="43" r="0.6"/><circle cx="641" cy="320" r="0.6"/><circle cx="677" cy="15" r="0.7"/><circle cx="689" cy="41" r="0.7"/><circle cx="723" cy="11" r="0.6"/><circle cx="768" cy="310" r="0.5"/><circle cx="796" cy="307" r="0.6"/><circle cx="800" cy="0" r="0.6"/><circle cx="807" cy="371" r="0.5"/><circle cx="810" cy="283" r="0.7"/><circle cx="877" cy="343" r="0.5"/><circle cx="899" cy="375" r="0.8"/><circle cx="924" cy="70" r="0.6"/><circle cx="978" cy="15" r="0.5"/><circle cx="1005" cy="276" r="0.6"/><circle cx="1035" cy="145" r="0.8"/><circle cx="1081" cy="169" r="0.7"/><circle cx="1102" cy="143" r="0.7"/><circle cx="1126" cy="162" r="0.5"/><circle cx="1149" cy="3" r="0.5"/><circle cx="1170" cy="154" r="0.7"/><circle cx="1189" cy="293" r="0.4"/><circle cx="1193" cy="350" r="0.4"/><circle cx="1249" cy="172" r="0.7"/><circle cx="1262" cy="185" r="0.7"/><circle cx="1268" cy="272" r="0.5"/><circle cx="1271" cy="78" r="0.4"/><circle cx="1276" cy="263" r="0.4"/><circle cx="1293" cy="50" r="0.5"/><circle cx="1326" cy="60" r="0.7"/><circle cx="1331" cy="245" r="0.6"/><circle cx="1399" cy="74" r="0.6"/><circle cx="1422" cy="64" r="0.5"/></g><g fill="#fff" fill-opacity="0.29"><circle cx="1" cy="78" r="0.5"/><circle cx="20" cy="235" r="0.8"/><circle cx="48" cy="152" r="0.5"/><circle cx="100" cy="165" r="0.6"/><circle cx="101" cy="201" r="0.4"/><circle cx="103" cy="184" r="0.5"/><circle cx="112" cy="223" r="0.5"/><circle cx="113" cy="23" r="0.7"/><circle cx="148" cy="136" r="0.8"/><circle cx="148" cy="158" r="0.6"/><circle cx="150" cy="127" r="0.5"/><circle cx="155" cy="91" r="0.4"/><circle cx="167" cy="152" r="0.4"/><circle cx="175" cy="359" r="0.8"/><circle cx="181" cy="362" r="0.8"/><circle cx="190" cy="11" r="0.4"/><circle cx="195" cy="166" r="0.6"/><circle cx="195" cy="229" r="0.6"/><circle cx="204" cy="88" r="0.7"/><circle cx="209" cy="76" r="0.5"/><circle cx="214" cy="203" r="0.7"/><circle cx="216" cy="331" r="0.5"/><circle cx="224" cy="181" r="0.5"/><circle cx="233" cy="318" r="0.6"/><circle cx="239" cy="107" r="0.7"/><circle cx="251" cy="177" r="0.7"/><circle cx="267" cy="295" r="0.6"/><circle cx="268" cy="159" r="0.4"/><circle cx="275" cy="34" r="0.6"/><circle cx="278" cy="265" r="0.7"/><circle cx="294" cy="228" r="0.4"/><circle cx="304" cy="365" r="0.6"/><circle cx="325" cy="127" r="0.5"/><circle cx="326" cy="52" r="0.8"/><circle cx="330" cy="355" r="0.6"/><circle cx="362" cy="301" r="0.8"/><circle cx="363" cy="85" r="0.7"/><circle cx="379" cy="383" r="0.7"/><circle cx="387" cy="140" r="0.4"/><circle cx="401" cy="375" r="0.6"/><circle cx="419" cy="243" r="0.7"/><circle cx="420" cy="314" r="0.5"/><circle cx="450" cy="259" r="0.6"/><circle cx="453" cy="41" r="0.7"/><circle cx="464" cy="107" r="0.8"/><circle cx="468" cy="208" r="0.6"/><circle cx="477" cy="119" r="0.5"/><circle cx="478" cy="231" r="0.5"/><circle cx="482" cy="243" r="0.6"/><circle cx="493" cy="194" r="0.6"/><circle cx="507" cy="73" r="0.5"/><circle cx="509" cy="77" r="0.8"/><circle cx="523" cy="40" r="0.6"/><circle cx="552" cy="62" r="0.5"/><circle cx="553" cy="231" r="0.8"/><circle cx="573" cy="206" r="0.5"/><circle cx="584" cy="55" r="0.5"/><circle cx="598" cy="150" r="0.5"/><circle cx="624" cy="57" r="0.6"/><circle cx="631" cy="36" r="0.7"/><circle cx="638" cy="361" r="0.7"/><circle cx="650" cy="229" r="0.5"/><circle cx="668" cy="159" r="0.4"/><circle cx="668" cy="235" r="0.8"/><circle cx="681" cy="343" r="0.4"/><circle cx="751" cy="34" r="0.7"/><circle cx="773" cy="34" r="0.5"/><circle cx="796" cy="113" r="0.6"/><circle cx="804" cy="236" r="0.5"/><circle cx="830" cy="315" r="0.8"/><circle cx="854" cy="11" r="0.6"/><circle cx="868" cy="268" r="0.5"/><circle cx="897" cy="58" r="0.8"/><circle cx="904" cy="8" r="0.7"/><circle cx="929" cy="151" r="0.8"/><circle cx="963" cy="179" r="0.8"/><circle cx="990" cy="372" r="0.8"/><circle cx="1035" cy="51" r="0.7"/><circle cx="1042" cy="37" r="0.6"/><circle cx="1089" cy="182" r="0.8"/><circle cx="1108" cy="94" r="0.7"/><circle cx="1124" cy="1" r="0.6"/><circle cx="1125" cy="287" r="0.4"/><circle cx="1133" cy="334" r="0.6"/><circle cx="1143" cy="253" r="0.7"/><circle cx="1160" cy="345" r="0.5"/><circle cx="1161" cy="253" r="0.7"/><circle cx="1177" cy="61" r="0.5"/><circle cx="1188" cy="301" r="0.6"/><circle cx="1237" cy="247" r="0.8"/><circle cx="1243" cy="36" r="0.7"/><circle cx="1243" cy="60" r="0.7"/><circle cx="1243" cy="123" r="0.6"/><circle cx="1245" cy="186" r="0.4"/><circle cx="1247" cy="87" r="0.6"/><circle cx="1250" cy="307" r="0.5"/><circle cx="1267" cy="228" r="0.7"/><circle cx="1279" cy="136" r="0.6"/><circle cx="1283" cy="41" r="0.6"/><circle cx="1365" cy="214" r="0.5"/><circle cx="1376" cy="204" r="0.8"/><circle cx="1377" cy="219" r="0.6"/><circle cx="1391" cy="339" r="0.6"/><circle cx="1394" cy="142" r="0.5"/><circle cx="1395" cy="150" r="0.6"/><circle cx="1412" cy="229" r="0.7"/><circle cx="1421" cy="260" r="0.5"/><circle cx="1444" cy="200" r="0.4"/></g><g fill="#fff" fill-opacity="0.38"><circle cx="-1" cy="279" r="0.7"/><circle cx="9" cy="224" r="0.7"/><circle cx="39" cy="376" r="0.6"/><circle cx="41" cy="207" r="0.8"/><circle cx="94" cy="128" r="0.7"/><circle cx="113" cy="196" r="0.8"/><circle cx="121" cy="171" r="0.7"/><circle cx="157" cy="76" r="0.5"/><circle cx="202" cy="91" r="0.4"/><circle cx="220" cy="204" r="0.4"/><circle cx="229" cy="81" r="0.6"/><circle cx="231" cy="126" r="0.6"/><circle cx="243" cy="54" r="0.4"/><circle cx="249" cy="162" r="0.6"/><circle cx="260" cy="75" r="0.5"/><circle cx="284" cy="93" r="0.6"/><circle cx="309" cy="205" r="0.7"/><circle cx="339" cy="240" r="0.4"/><circle cx="358" cy="153" r="0.8"/><circle cx="383" cy="290" r="0.5"/><circle cx="386" cy="132" r="0.4"/><circle cx="390" cy="118" r="0.6"/><circle cx="393" cy="66" r="0.6"/><circle cx="399" cy="314" r="0.6"/><circle cx="400" cy="88" r="0.6"/><circle cx="401" cy="267" r="0.5"/><circle cx="403" cy="284" r="0.8"/><circle cx="404" cy="138" r="0.6"/><circle cx="410" cy="121" r="0.6"/><circle cx="422" cy="134" r="0.5"/><circle cx="428" cy="154" r="0.6"/><circle cx="438" cy="-4" r="0.5"/><circle cx="451" cy="39" r="0.4"/><circle cx="484" cy="266" r="0.5"/><circle cx="503" cy="355" r="0.6"/><circle cx="514" cy="348" r="0.8"/><circle cx="518" cy="265" r="0.6"/><circle cx="537" cy="63" r="0.6"/><circle cx="540" cy="85" r="0.4"/><circle cx="557" cy="306" r="0.7"/><circle cx="560" cy="72" r="0.6"/><circle cx="565" cy="72" r="0.5"/><circle cx="566" cy="62" r="0.7"/><circle cx="575" cy="280" r="0.8"/><circle cx="602" cy="322" r="0.6"/><circle cx="615" cy="129" r="0.8"/><circle cx="625" cy="11" r="0.4"/><circle cx="669" cy="258" r="0.6"/><circle cx="679" cy="9" r="0.6"/><circle cx="682" cy="141" r="0.6"/><circle cx="694" cy="157" r="0.7"/><circle cx="703" cy="41" r="0.7"/><circle cx="709" cy="0" r="0.7"/><circle cx="715" cy="20" r="0.5"/><circle cx="718" cy="58" r="0.7"/><circle cx="719" cy="289" r="0.7"/><circle cx="737" cy="148" r="0.7"/><circle cx="751" cy="44" r="0.5"/><circle cx="830" cy="191" r="0.6"/><circle cx="835" cy="241" r="0.7"/><circle cx="857" cy="100" r="0.5"/><circle cx="871" cy="7" r="0.7"/><circle cx="895" cy="34" r="0.5"/><circle cx="975" cy="31" r="0.5"/><circle cx="993" cy="248" r="0.5"/><circle cx="996" cy="369" r="0.7"/><circle cx="1005" cy="193" r="0.5"/><circle cx="1006" cy="198" r="0.6"/><circle cx="1018" cy="364" r="0.6"/><circle cx="1019" cy="290" r="0.8"/><circle cx="1029" cy="279" r="0.7"/><circle cx="1047" cy="47" r="0.6"/><circle cx="1056" cy="259" r="0.7"/><circle cx="1059" cy="336" r="0.7"/><circle cx="1075" cy="237" r="0.6"/><circle cx="1121" cy="62" r="0.7"/><circle cx="1162" cy="118" r="0.6"/><circle cx="1170" cy="294" r="0.5"/><circle cx="1179" cy="298" r="0.4"/><circle cx="1189" cy="106" r="0.6"/><circle cx="1189" cy="132" r="0.7"/><circle cx="1212" cy="185" r="0.7"/><circle cx="1217" cy="285" r="0.6"/><circle cx="1225" cy="157" r="0.4"/><circle cx="1229" cy="197" r="0.5"/><circle cx="1230" cy="353" r="0.4"/><circle cx="1249" cy="310" r="0.6"/><circle cx="1251" cy="389" r="0.6"/><circle cx="1252" cy="100" r="0.6"/><circle cx="1260" cy="243" r="0.7"/><circle cx="1263" cy="28" r="0.4"/><circle cx="1276" cy="250" r="0.6"/><circle cx="1293" cy="260" r="0.7"/><circle cx="1305" cy="164" r="0.4"/><circle cx="1318" cy="166" r="0.5"/><circle cx="1319" cy="17" r="0.5"/><circle cx="1327" cy="122" r="0.7"/><circle cx="1327" cy="201" r="0.6"/><circle cx="1332" cy="107" r="0.5"/><circle cx="1333" cy="249" r="0.5"/><circle cx="1333" cy="340" r="0.7"/><circle cx="1366" cy="275" r="0.5"/><circle cx="1377" cy="69" r="0.4"/><circle cx="1377" cy="83" r="0.5"/><circle cx="1397" cy="186" r="0.5"/><circle cx="1398" cy="132" r="0.6"/></g><g fill="#fff" fill-opacity="0.46"><circle cx="9" cy="252" r="0.5"/><circle cx="22" cy="217" r="1.4"/><circle cx="66" cy="345" r="0.4"/><circle cx="71" cy="214" r="0.6"/><circle cx="154" cy="158" r="0.8"/><circle cx="198" cy="316" r="1.4"/><circle cx="211" cy="158" r="0.8"/><circle cx="298" cy="306" r="0.5"/><circle cx="315" cy="178" r="0.6"/><circle cx="317" cy="210" r="0.7"/><circle cx="341" cy="358" r="0.5"/><circle cx="351" cy="195" r="1.5"/><circle cx="352" cy="320" r="0.4"/><circle cx="379" cy="58" r="1.2"/><circle cx="405" cy="138" r="0.7"/><circle cx="409" cy="295" r="0.6"/><circle cx="414" cy="370" r="0.5"/><circle cx="438" cy="312" r="0.7"/><circle cx="442" cy="318" r="0.7"/><circle cx="454" cy="257" r="0.5"/><circle cx="463" cy="235" r="1.1"/><circle cx="466" cy="80" r="0.5"/><circle cx="495" cy="78" r="0.6"/><circle cx="513" cy="77" r="0.5"/><circle cx="515" cy="42" r="1.3"/><circle cx="521" cy="215" r="0.5"/><circle cx="531" cy="84" r="0.7"/><circle cx="544" cy="234" r="0.7"/><circle cx="558" cy="359" r="0.7"/><circle cx="565" cy="307" r="1.2"/><circle cx="621" cy="217" r="0.6"/><circle cx="660" cy="8" r="0.6"/><circle cx="680" cy="220" r="0.7"/><circle cx="693" cy="10" r="0.8"/><circle cx="728" cy="210" r="0.5"/><circle cx="732" cy="303" r="0.4"/><circle cx="746" cy="8" r="0.6"/><circle cx="778" cy="157" r="0.5"/><circle cx="900" cy="73" r="1.1"/><circle cx="918" cy="217" r="0.5"/><circle cx="948" cy="343" r="1.3"/><circle cx="1018" cy="280" r="0.4"/><circle cx="1073" cy="288" r="1.3"/><circle cx="1120" cy="272" r="0.5"/><circle cx="1154" cy="355" r="0.8"/><circle cx="1161" cy="330" r="0.6"/><circle cx="1191" cy="67" r="0.8"/><circle cx="1233" cy="309" r="1"/><circle cx="1260" cy="215" r="0.5"/><circle cx="1347" cy="109" r="0.7"/><circle cx="1351" cy="12" r="0.7"/><circle cx="1365" cy="353" r="0.6"/><circle cx="1367" cy="209" r="0.6"/><circle cx="1390" cy="103" r="0.6"/><circle cx="1392" cy="204" r="0.5"/></g><g fill="#fff" fill-opacity="0.54"><circle cx="25" cy="184" r="1.2"/><circle cx="75" cy="317" r="1.4"/><circle cx="125" cy="222" r="1"/><circle cx="126" cy="372" r="1.2"/><circle cx="153" cy="183" r="1.4"/><circle cx="203" cy="175" r="0.9"/><circle cx="296" cy="232" r="1.2"/><circle cx="301" cy="213" r="1.2"/><circle cx="325" cy="125" r="1.2"/><circle cx="332" cy="196" r="1.3"/><circle cx="360" cy="111" r="1.3"/><circle cx="373" cy="9" r="0.9"/><circle cx="383" cy="94" r="1.3"/><circle cx="389" cy="299" r="1.4"/><circle cx="395" cy="220" r="1.5"/><circle cx="418" cy="379" r="1.1"/><circle cx="475" cy="293" r="1"/><circle cx="483" cy="113" r="1.1"/><circle cx="496" cy="249" r="1.1"/><circle cx="500" cy="159" r="1.1"/><circle cx="501" cy="44" r="1"/><circle cx="504" cy="28" r="0.9"/><circle cx="521" cy="8" r="1.4"/><circle cx="538" cy="210" r="1.5"/><circle cx="592" cy="11" r="1.1"/><circle cx="595" cy="8" r="1"/><circle cx="630" cy="20" r="1.1"/><circle cx="638" cy="49" r="1.1"/><circle cx="715" cy="138" r="1.2"/><circle cx="867" cy="228" r="1"/><circle cx="890" cy="134" r="1.3"/><circle cx="937" cy="343" r="1.4"/><circle cx="977" cy="104" r="1.2"/><circle cx="991" cy="78" r="0.9"/><circle cx="1010" cy="358" r="1.4"/><circle cx="1014" cy="193" r="1.2"/><circle cx="1037" cy="290" r="1.5"/><circle cx="1094" cy="371" r="1.3"/><circle cx="1159" cy="107" r="1"/><circle cx="1194" cy="342" r="1.1"/><circle cx="1255" cy="286" r="1.4"/><circle cx="1259" cy="115" r="1.5"/><circle cx="1296" cy="203" r="1.3"/><circle cx="1305" cy="239" r="1.1"/><circle cx="1347" cy="167" r="1.3"/><circle cx="1383" cy="190" r="1.2"/><circle cx="1421" cy="119" r="1.4"/><circle cx="1431" cy="108" r="0.9"/></g><g fill="#fff" fill-opacity="0.62"><circle cx="-2" cy="310" r="1.5"/><circle cx="76" cy="95" r="1.2"/><circle cx="93" cy="211" r="1.2"/><circle cx="201" cy="390" r="1.3"/><circle cx="202" cy="217" r="1.4"/><circle cx="206" cy="158" r="1.2"/><circle cx="261" cy="108" r="1.5"/><circle cx="292" cy="31" r="1.4"/><circle cx="300" cy="92" r="1.4"/><circle cx="300" cy="137" r="1.5"/><circle cx="379" cy="323" r="1.4"/><circle cx="404" cy="389" r="1.3"/><circle cx="420" cy="22" r="1.3"/><circle cx="431" cy="55" r="1"/><circle cx="451" cy="129" r="1"/><circle cx="490" cy="276" r="1.4"/><circle cx="516" cy="273" r="1.5"/><circle cx="561" cy="188" r="1.3"/><circle cx="568" cy="47" r="1.2"/><circle cx="641" cy="292" r="1.5"/><circle cx="702" cy="230" r="1"/><circle cx="703" cy="226" r="0.9"/><circle cx="838" cy="215" r="1.3"/><circle cx="868" cy="377" r="1.4"/><circle cx="870" cy="314" r="1"/><circle cx="887" cy="172" r="1.2"/><circle cx="927" cy="71" r="1.1"/><circle cx="985" cy="267" r="1.3"/><circle cx="1047" cy="144" r="1.2"/><circle cx="1058" cy="381" r="1.3"/><circle cx="1128" cy="166" r="1.2"/><circle cx="1129" cy="311" r="1.5"/><circle cx="1193" cy="19" r="1.1"/><circle cx="1289" cy="180" r="1.2"/><circle cx="1316" cy="28" r="1.2"/><circle cx="1342" cy="9" r="1.3"/><circle cx="1360" cy="166" r="1.3"/><circle cx="1410" cy="364" r="1.4"/><circle cx="1435" cy="274" r="1.1"/><circle cx="1444" cy="290" r="1"/></g><g fill="#fff" fill-opacity="0.71"><circle cx="13" cy="240" r="1.3"/><circle cx="124" cy="333" r="1.3"/><circle cx="169" cy="211" r="1.1"/><circle cx="191" cy="158" r="1.2"/><circle cx="204" cy="91" r="1.4"/><circle cx="236" cy="193" r="1.1"/><circle cx="255" cy="213" r="1.1"/><circle cx="305" cy="187" r="1.1"/><circle cx="319" cy="95" r="1.3"/><circle cx="351" cy="48" r="1.1"/><circle cx="383" cy="12" r="1.5"/><circle cx="403" cy="49" r="1.2"/><circle cx="406" cy="223" r="1.1"/><circle cx="422" cy="366" r="1.1"/><circle cx="577" cy="268" r="1.3"/><circle cx="595" cy="18" r="1"/><circle cx="891" cy="111" r="0.9"/><circle cx="910" cy="77" r="1.2"/><circle cx="1075" cy="275" r="1.1"/><circle cx="1090" cy="137" r="0.9"/><circle cx="1098" cy="83" r="1.2"/><circle cx="1188" cy="146" r="1"/><circle cx="1211" cy="365" r="1.2"/><circle cx="1221" cy="26" r="1"/><circle cx="1274" cy="261" r="1.1"/><circle cx="1301" cy="285" r="1.1"/><circle cx="1383" cy="298" r="1.4"/><circle cx="1408" cy="14" r="1.1"/><circle cx="1437" cy="191" r="1"/></g><g fill="#fff" fill-opacity="0.79"><circle cx="90" cy="5" r="1.1"/><circle cx="98" cy="130" r="2.7"/><circle cx="145" cy="232" r="1"/><circle cx="175" cy="329" r="1.5"/><circle cx="416" cy="100" r="1.3"/><circle cx="511" cy="38" r="1.4"/><circle cx="534" cy="279" r="1"/><circle cx="631" cy="309" r="1.2"/><circle cx="731" cy="292" r="1.4"/><circle cx="763" cy="174" r="1.3"/><circle cx="789" cy="15" r="1.5"/><circle cx="873" cy="36" r="1.4"/><circle cx="905" cy="102" r="1.5"/><circle cx="973" cy="102" r="0.9"/><circle cx="1049" cy="207" r="2.2"/><circle cx="1098" cy="82" r="1"/><circle cx="1150" cy="159" r="1.2"/><circle cx="1213" cy="355" r="1.4"/><circle cx="1263" cy="222" r="1.4"/></g><g fill="#fff" fill-opacity="0.88"><circle cx="79" cy="235" r="2.7"/><circle cx="98" cy="286" r="2.4"/><circle cx="127" cy="145" r="2.6"/><circle cx="166" cy="73" r="2.3"/><circle cx="174" cy="157" r="2.4"/><circle cx="191" cy="115" r="2.6"/><circle cx="285" cy="326" r="2.7"/><circle cx="367" cy="69" r="2.5"/><circle cx="400" cy="225" r="2.4"/><circle cx="413" cy="195" r="2.3"/><circle cx="413" cy="219" r="2"/><circle cx="419" cy="176" r="2.5"/><circle cx="496" cy="253" r="1.7"/><circle cx="545" cy="30" r="1.9"/><circle cx="633" cy="27" r="1.7"/><circle cx="730" cy="374" r="2.1"/><circle cx="844" cy="25" r="2.7"/><circle cx="866" cy="181" r="1.7"/><circle cx="928" cy="215" r="2.1"/><circle cx="1013" cy="175" r="1.9"/><circle cx="1018" cy="267" r="2.5"/><circle cx="1235" cy="154" r="2.1"/><circle cx="1260" cy="62" r="1.8"/><circle cx="1303" cy="313" r="2.1"/><circle cx="1330" cy="52" r="1.8"/><circle cx="1332" cy="258" r="1.9"/><circle cx="1364" cy="119" r="1.9"/><circle cx="1392" cy="122" r="2.1"/><circle cx="1431" cy="173" r="1.9"/></g><g fill="#fff" fill-opacity="0.96"><circle cx="23" cy="283" r="2.6"/><circle cx="54" cy="341" r="2"/><circle cx="115" cy="162" r="2.4"/><circle cx="148" cy="160" r="2.3"/><circle cx="296" cy="228" r="2.4"/><circle cx="311" cy="135" r="2.4"/><circle cx="341" cy="305" r="2.2"/><circle cx="379" cy="210" r="2.6"/><circle cx="418" cy="375" r="1.9"/><circle cx="463" cy="303" r="1.8"/><circle cx="489" cy="7" r="2"/><circle cx="546" cy="191" r="2.1"/><circle cx="558" cy="35" r="2.6"/><circle cx="630" cy="291" r="2.1"/><circle cx="698" cy="9" r="2.5"/><circle cx="755" cy="16" r="1.8"/><circle cx="819" cy="21" r="2"/><circle cx="876" cy="146" r="1.7"/><circle cx="986" cy="280" r="2.4"/><circle cx="990" cy="352" r="2"/><circle cx="1052" cy="211" r="1.7"/><circle cx="1067" cy="174" r="1.8"/><circle cx="1352" cy="168" r="1.7"/></g><g opacity="0.81"><circle cx="443" cy="324" r="5" fill="#fff" opacity="0.30" filter="url(#fhgf)"/><path d="M408 324 h71" stroke="url(#fxgf)" stroke-width="1.5"/><path d="M443 299 v51" stroke="url(#fygf)" stroke-width="1.5"/><circle cx="443" cy="324" r="2.5" fill="#fff"/></g><g opacity="0.73"><circle cx="338" cy="246" r="5" fill="#fff" opacity="0.30" filter="url(#fhgf)"/><path d="M292 246 h93" stroke="url(#fxgf)" stroke-width="1.5"/><path d="M338 213 v67" stroke="url(#fygf)" stroke-width="1.5"/><circle cx="338" cy="246" r="2.6" fill="#fff"/></g><g opacity="0.72"><circle cx="321" cy="185" r="5" fill="#fff" opacity="0.30" filter="url(#fhgf)"/><path d="M281 185 h80" stroke="url(#fxgf)" stroke-width="1.5"/><path d="M321 156 v58" stroke="url(#fygf)" stroke-width="1.5"/><circle cx="321" cy="185" r="2.4" fill="#fff"/></g><g opacity="0.82"><circle cx="550" cy="272" r="4" fill="#fff" opacity="0.30" filter="url(#fhgf)"/><path d="M524 272 h52" stroke="url(#fxgf)" stroke-width="1.5"/><path d="M550 253 v38" stroke="url(#fygf)" stroke-width="1.5"/><circle cx="550" cy="272" r="2.1" fill="#fff"/></g><g opacity="0.91"><circle cx="290" cy="287" r="5" fill="#fff" opacity="0.30" filter="url(#fhgf)"/><path d="M263 287 h54" stroke="url(#fxgf)" stroke-width="1.5"/><path d="M290 268 v39" stroke="url(#fygf)" stroke-width="1.5"/><circle cx="290" cy="287" r="2.4" fill="#fff"/></g><g opacity="0.96"><circle cx="1043" cy="62" r="4" fill="#fff" opacity="0.30" filter="url(#fhgf)"/><path d="M1000 62 h86" stroke="url(#fxgf)" stroke-width="1.5"/><path d="M1043 31 v62" stroke="url(#fygf)" stroke-width="1.5"/><circle cx="1043" cy="62" r="2" fill="#fff"/></g><g opacity="0.94"><circle cx="679" cy="322" r="5" fill="#fff" opacity="0.30" filter="url(#fhgf)"/><path d="M641 322 h76" stroke="url(#fxgf)" stroke-width="1.5"/><path d="M679 295 v55" stroke="url(#fygf)" stroke-width="1.5"/><circle cx="679" cy="322" r="2.6" fill="#fff"/></g><g opacity="0.89"><circle cx="602" cy="320" r="4" fill="#fff" opacity="0.30" filter="url(#fhgf)"/><path d="M550 320 h103" stroke="url(#fxgf)" stroke-width="1.5"/><path d="M602 283 v74" stroke="url(#fygf)" stroke-width="1.5"/><circle cx="602" cy="320" r="1.8" fill="#fff"/></g><g opacity="0.82"><circle cx="1196" cy="234" r="5" fill="#fff" opacity="0.30" filter="url(#fhgf)"/><path d="M1165 234 h63" stroke="url(#fxgf)" stroke-width="1.5"/><path d="M1196 212 v46" stroke="url(#fygf)" stroke-width="1.5"/><circle cx="1196" cy="234" r="2.3" fill="#fff"/></g><g opacity="0.72"><circle cx="1345" cy="210" r="5" fill="#fff" opacity="0.30" filter="url(#fhgf)"/><path d="M1306 210 h78" stroke="url(#fxgf)" stroke-width="1.5"/><path d="M1345 182 v56" stroke="url(#fygf)" stroke-width="1.5"/><circle cx="1345" cy="210" r="2.5" fill="#fff"/></g><g opacity="0.71"><circle cx="731" cy="48" r="4" fill="#fff" opacity="0.30" filter="url(#fhgf)"/><path d="M683 48 h94" stroke="url(#fxgf)" stroke-width="1.5"/><path d="M731 14 v68" stroke="url(#fygf)" stroke-width="1.5"/><circle cx="731" cy="48" r="1.9" fill="#fff"/></g><g opacity="0.89"><circle cx="254" cy="196" r="4" fill="#fff" opacity="0.30" filter="url(#fhgf)"/><path d="M221 196 h67" stroke="url(#fxgf)" stroke-width="1.5"/><path d="M254 172 v48" stroke="url(#fygf)" stroke-width="1.5"/><circle cx="254" cy="196" r="2" fill="#fff"/></g><defs><radialGradient id="bdgf" cx="32%" cy="60%" r="76%"><stop offset="0%" stop-color="#5FBE7C" stop-opacity="0.42"></stop><stop offset="38%" stop-color="#5FBE7C" stop-opacity="0.13"></stop><stop offset="100%" stop-color="#5FBE7C" stop-opacity="0"></stop></radialGradient><clipPath id="bcgf"><circle cx="1078" cy="78" r="116"></circle></clipPath><filter id="bagf" x="-40%" y="-40%" width="180%" height="180%"><feGaussianBlur stdDeviation="9"></feGaussianBlur></filter></defs><circle cx="1078" cy="78" r="119" fill="none" stroke="#5FBE7C" stroke-opacity="0.30" stroke-width="7" filter="url(#bagf)"></circle><circle cx="1078" cy="78" r="116" fill="#0A0B0C"></circle><circle cx="1078" cy="78" r="116" fill="url(#bdgf)"></circle><g clip-path="url(#bcgf)" fill="none" stroke="#5FBE7C" stroke-opacity="0.10"><ellipse cx="1078" cy="35" rx="115" ry="28" stroke-width="1.2"></ellipse><ellipse cx="1078" cy="78" rx="115" ry="35" stroke-width="1.2"></ellipse><ellipse cx="1078" cy="121" rx="115" ry="28" stroke-width="1.2"></ellipse></g><circle cx="1078" cy="78" r="116" fill="none" stroke="#5FBE7C" stroke-opacity="0.55" stroke-width="1.6"></circle><defs><filter id="ggf" x="-70%" y="-70%" width="240%" height="240%"><feGaussianBlur stdDeviation="18"></feGaussianBlur></filter><filter id="ggf2" x="-70%" y="-70%" width="240%" height="240%"><feGaussianBlur stdDeviation="56"></feGaussianBlur></filter></defs><path d="M700 392 L-6140 960" fill="none" stroke="#fff" stroke-opacity="0.10" stroke-width="1"></path><path d="M700 392 L-5912 960" fill="none" stroke="#fff" stroke-opacity="0.10" stroke-width="1"></path><path d="M700 392 L-5684 960" fill="none" stroke="#fff" stroke-opacity="0.10" stroke-width="1"></path><path d="M700 392 L-5456 960" fill="none" stroke="#fff" stroke-opacity="0.10" stroke-width="1"></path><path d="M700 392 L-5228 960" fill="none" stroke="#fff" stroke-opacity="0.10" stroke-width="1"></path><path d="M700 392 L-5000 960" fill="none" stroke="#fff" stroke-opacity="0.10" stroke-width="1"></path><path d="M700 392 L-4772 960" fill="none" stroke="#fff" stroke-opacity="0.10" stroke-width="1"></path><path d="M700 392 L-4544 960" fill="none" stroke="#fff" stroke-opacity="0.10" stroke-width="1"></path><path d="M700 392 L-4316 960" fill="none" stroke="#fff" stroke-opacity="0.10" stroke-width="1"></path><path d="M700 392 L-4088 960" fill="none" stroke="#fff" stroke-opacity="0.10" stroke-width="1"></path><path d="M700 392 L-3860 960" fill="none" stroke="#fff" stroke-opacity="0.10" stroke-width="1"></path><path d="M700 392 L-3632 960" fill="none" stroke="#fff" stroke-opacity="0.10" stroke-width="1"></path><path d="M700 392 L-3404 960" fill="none" stroke="#fff" stroke-opacity="0.10" stroke-width="1"></path><path d="M700 392 L-3176 960" fill="none" stroke="#fff" stroke-opacity="0.10" stroke-width="1"></path><path d="M700 392 L-2948 960" fill="none" stroke="#fff" stroke-opacity="0.10" stroke-width="1"></path><path d="M700 392 L-2720 960" fill="none" stroke="#fff" stroke-opacity="0.10" stroke-width="1"></path><path d="M700 392 L-2492 960" fill="none" stroke="#fff" stroke-opacity="0.10" stroke-width="1"></path><path d="M700 392 L-2264 960" fill="none" stroke="#fff" stroke-opacity="0.10" stroke-width="1"></path><path d="M700 392 L-2036 960" fill="none" stroke="#fff" stroke-opacity="0.10" stroke-width="1"></path><path d="M700 392 L-1808 960" fill="none" stroke="#fff" stroke-opacity="0.10" stroke-width="1"></path><path d="M700 392 L-1580 960" fill="none" stroke="#fff" stroke-opacity="0.10" stroke-width="1"></path><path d="M700 392 L-1352 960" fill="none" stroke="#fff" stroke-opacity="0.10" stroke-width="1"></path><path d="M700 392 L-1124 960" fill="none" stroke="#fff" stroke-opacity="0.10" stroke-width="1"></path><path d="M700 392 L-896 960" fill="none" stroke="#fff" stroke-opacity="0.10" stroke-width="1"></path><path d="M700 392 L-668 960" fill="none" stroke="#fff" stroke-opacity="0.10" stroke-width="1"></path><path d="M700 392 L-440 960" fill="none" stroke="#fff" stroke-opacity="0.10" stroke-width="1"></path><path d="M700 392 L-212 960" fill="none" stroke="#fff" stroke-opacity="0.10" stroke-width="1"></path><path d="M700 392 L16 960" fill="none" stroke="#fff" stroke-opacity="0.10" stroke-width="1"></path><path d="M700 392 L244 960" fill="none" stroke="#fff" stroke-opacity="0.10" stroke-width="1"></path><path d="M700 392 L472 960" fill="none" stroke="#fff" stroke-opacity="0.10" stroke-width="1"></path><path d="M700 392 L700 960" fill="none" stroke="#fff" stroke-opacity="0.10" stroke-width="1"></path><path d="M700 392 L928 960" fill="none" stroke="#fff" stroke-opacity="0.10" stroke-width="1"></path><path d="M700 392 L1156 960" fill="none" stroke="#fff" stroke-opacity="0.10" stroke-width="1"></path><path d="M700 392 L1384 960" fill="none" stroke="#fff" stroke-opacity="0.10" stroke-width="1"></path><path d="M700 392 L1612 960" fill="none" stroke="#fff" stroke-opacity="0.10" stroke-width="1"></path><path d="M700 392 L1840 960" fill="none" stroke="#fff" stroke-opacity="0.10" stroke-width="1"></path><path d="M700 392 L2068 960" fill="none" stroke="#fff" stroke-opacity="0.10" stroke-width="1"></path><path d="M700 392 L2296 960" fill="none" stroke="#fff" stroke-opacity="0.10" stroke-width="1"></path><path d="M700 392 L2524 960" fill="none" stroke="#fff" stroke-opacity="0.10" stroke-width="1"></path><path d="M700 392 L2752 960" fill="none" stroke="#fff" stroke-opacity="0.10" stroke-width="1"></path><path d="M700 392 L2980 960" fill="none" stroke="#fff" stroke-opacity="0.10" stroke-width="1"></path><path d="M700 392 L3208 960" fill="none" stroke="#fff" stroke-opacity="0.10" stroke-width="1"></path><path d="M700 392 L3436 960" fill="none" stroke="#fff" stroke-opacity="0.10" stroke-width="1"></path><path d="M700 392 L3664 960" fill="none" stroke="#fff" stroke-opacity="0.10" stroke-width="1"></path><path d="M700 392 L3892 960" fill="none" stroke="#fff" stroke-opacity="0.10" stroke-width="1"></path><path d="M700 392 L4120 960" fill="none" stroke="#fff" stroke-opacity="0.10" stroke-width="1"></path><path d="M700 392 L4348 960" fill="none" stroke="#fff" stroke-opacity="0.10" stroke-width="1"></path><path d="M700 392 L4576 960" fill="none" stroke="#fff" stroke-opacity="0.10" stroke-width="1"></path><path d="M700 392 L4804 960" fill="none" stroke="#fff" stroke-opacity="0.10" stroke-width="1"></path><path d="M700 392 L5032 960" fill="none" stroke="#fff" stroke-opacity="0.10" stroke-width="1"></path><path d="M700 392 L5260 960" fill="none" stroke="#fff" stroke-opacity="0.10" stroke-width="1"></path><path d="M700 392 L5488 960" fill="none" stroke="#fff" stroke-opacity="0.10" stroke-width="1"></path><path d="M700 392 L5716 960" fill="none" stroke="#fff" stroke-opacity="0.10" stroke-width="1"></path><path d="M700 392 L5944 960" fill="none" stroke="#fff" stroke-opacity="0.10" stroke-width="1"></path><path d="M700 392 L6172 960" fill="none" stroke="#fff" stroke-opacity="0.10" stroke-width="1"></path><path d="M700 392 L6400 960" fill="none" stroke="#fff" stroke-opacity="0.10" stroke-width="1"></path><path d="M700 392 L6628 960" fill="none" stroke="#fff" stroke-opacity="0.10" stroke-width="1"></path><path d="M700 392 L6856 960" fill="none" stroke="#fff" stroke-opacity="0.10" stroke-width="1"></path><path d="M700 392 L7084 960" fill="none" stroke="#fff" stroke-opacity="0.10" stroke-width="1"></path><path d="M700 392 L7312 960" fill="none" stroke="#fff" stroke-opacity="0.10" stroke-width="1"></path><path d="M700 392 L7540 960" fill="none" stroke="#fff" stroke-opacity="0.10" stroke-width="1"></path><path d="M-40 392 H1480" fill="none" stroke="#fff" stroke-opacity="0.06" stroke-width="1"></path><path d="M-40 393 H1480" fill="none" stroke="#fff" stroke-opacity="0.06" stroke-width="1"></path><path d="M-40 396 H1480" fill="none" stroke="#fff" stroke-opacity="0.07" stroke-width="1"></path><path d="M-40 400 H1480" fill="none" stroke="#fff" stroke-opacity="0.07" stroke-width="1"></path><path d="M-40 406 H1480" fill="none" stroke="#fff" stroke-opacity="0.08" stroke-width="1"></path><path d="M-40 414 H1480" fill="none" stroke="#fff" stroke-opacity="0.09" stroke-width="1"></path><path d="M-40 424 H1480" fill="none" stroke="#fff" stroke-opacity="0.09" stroke-width="1"></path><path d="M-40 437 H1480" fill="none" stroke="#fff" stroke-opacity="0.10" stroke-width="1"></path><path d="M-40 453 H1480" fill="none" stroke="#fff" stroke-opacity="0.10" stroke-width="1"></path><path d="M-40 471 H1480" fill="none" stroke="#fff" stroke-opacity="0.11" stroke-width="1"></path><path d="M-40 492 H1480" fill="none" stroke="#fff" stroke-opacity="0.12" stroke-width="1"></path><path d="M-40 517 H1480" fill="none" stroke="#fff" stroke-opacity="0.12" stroke-width="1"></path><path d="M-40 544 H1480" fill="none" stroke="#fff" stroke-opacity="0.13" stroke-width="1"></path><path d="M-40 575 H1480" fill="none" stroke="#fff" stroke-opacity="0.13" stroke-width="1"></path><path d="M-40 610 H1480" fill="none" stroke="#fff" stroke-opacity="0.14" stroke-width="1"></path><path d="M-40 648 H1480" fill="none" stroke="#fff" stroke-opacity="0.14" stroke-width="1"></path><path d="M-40 690 H1480" fill="none" stroke="#fff" stroke-opacity="0.15" stroke-width="1"></path><path d="M-40 736 H1480" fill="none" stroke="#fff" stroke-opacity="0.16" stroke-width="1"></path><path d="M-40 786 H1480" fill="none" stroke="#fff" stroke-opacity="0.16" stroke-width="1"></path><path d="M-40 840 H1480" fill="none" stroke="#fff" stroke-opacity="0.17" stroke-width="1"></path><path d="M-40 898 H1480" fill="none" stroke="#fff" stroke-opacity="0.17" stroke-width="1"></path><path d="M-40 392 H1480" fill="none" stroke="#fff" stroke-opacity="0.30" stroke-width="1"></path><defs><linearGradient id="ghz" x1="0" y1="0" x2="0" y2="1"><stop offset="0%" stop-color="#171717" stop-opacity="0"></stop><stop offset="100%" stop-color="#171717" stop-opacity="0.62"></stop></linearGradient></defs><rect x="0" y="228" width="1440" height="164" fill="url(#ghz)"></rect><g fill="none" stroke="#fff" stroke-opacity="0.34" stroke-width="1.5" stroke-linejoin="round" stroke-linecap="round" stroke-dasharray="10 9"><path d="M980.0 350.0 L1160.6 455.0 L1160.6 665.0 L980.0 770.0 L799.4 665.0 L799.4 455.0 Z"></path><path d="M799.4 455.0 L980.0 560.0 L1160.6 455.0"></path><path d="M980.0 560.0 L980.0 770.0"></path><path d="M889.7 402.5 L1070.3 507.5"></path><path d="M1070.3 402.5 L889.7 507.5"></path><path d="M889.7 507.5 L889.7 717.5"></path><path d="M799.4 560.0 L980.0 665.0"></path><path d="M1070.3 507.5 L1070.3 717.5"></path><path d="M980.0 665.0 L1160.6 560.0"></path></g><g filter="url(#ggf2)" opacity="0.55"><polygon points="980.0,560.0 1070.3,612.5 980.0,665.0 889.7,612.5" fill="#3E7D50" fill-opacity="1.00"></polygon><polygon points="889.7,612.5 980.0,665.0 980.0,770.0 889.7,717.5" fill="#3E7D50" fill-opacity="0.86"></polygon><polygon points="980.0,665.0 1070.3,612.5 1070.3,717.5 980.0,770.0" fill="#3E7D50" fill-opacity="0.66"></polygon></g><polygon points="980.0,560.0 1070.3,612.5 980.0,665.0 889.7,612.5" fill="#5FBE7C" fill-opacity="1.00"></polygon><polygon points="889.7,612.5 980.0,665.0 980.0,770.0 889.7,717.5" fill="#5FBE7C" fill-opacity="0.86"></polygon><polygon points="980.0,665.0 1070.3,612.5 1070.3,717.5 980.0,770.0" fill="#5FBE7C" fill-opacity="0.66"></polygon><g fill="none" stroke="#171717" stroke-opacity="0.50" stroke-width="1.6" stroke-linejoin="round" stroke-linecap="round"><path d="M980.0 560.0 L1070.3 612.5 L1070.3 717.5 L980.0 770.0 L889.7 717.5 L889.7 612.5 Z"></path><path d="M889.7 612.5 L980.0 665.0 L1070.3 612.5"></path><path d="M980.0 665.0 L980.0 770.0"></path></g><ellipse cx="980" cy="784" rx="118" ry="30" fill="none" stroke="#5FBE7C" stroke-opacity="0.30" stroke-width="1"></ellipse></svg>