<svg xmlns="http://www.w3.org/2000/svg" viewBox="0 0 1440 900" width="1440" height="900"><defs><radialGradient id="vigia" cx="50%" cy="46%" r="72%"><stop offset="0%" stop-color="#242424"></stop><stop offset="100%" stop-color="#141414"></stop></radialGradient><radialGradient id="dustia" cx="50%" cy="50%" r="50%"><stop offset="0%" stop-color="#FFFFFF" stop-opacity="0.06"></stop><stop offset="100%" stop-color="#FFFFFF" stop-opacity="0"></stop></radialGradient><linearGradient id="fxia"><stop offset="0%" stop-color="#FFFFFF" stop-opacity="0"></stop><stop offset="50%" stop-color="#FFFFFF" stop-opacity="0.92"></stop><stop offset="100%" stop-color="#FFFFFF" stop-opacity="0"></stop></linearGradient><linearGradient id="fyia" x1="0" y1="0" x2="0" y2="1"><stop offset="0%" stop-color="#FFFFFF" stop-opacity="0"></stop><stop offset="50%" stop-color="#FFFFFF" stop-opacity="0.92"></stop><stop offset="100%" stop-color="#FFFFFF" stop-opacity="0"></stop></linearGradient><filter id="fhia" x="-300%" y="-300%" width="700%" height="700%"><feGaussianBlur stdDeviation="3.5"></feGaussianBlur></filter></defs><defs><radialGradient id="bedia"><stop offset="0%" stop-color="#1E1E1E" stop-opacity="0.62"></stop><stop offset="52%" stop-color="#1E1E1E" stop-opacity="0.32"></stop><stop offset="100%" stop-color="#1E1E1E" stop-opacity="0"></stop></radialGradient></defs><ellipse cx="940" cy="470" rx="490" ry="400" fill="url(#bedia)"></ellipse><defs><radialGradient id="bdia" cx="26%" cy="22%" r="76%"><stop offset="0%" stop-color="#9A7BEE" stop-opacity="0.42"></stop><stop offset="38%" stop-color="#9A7BEE" stop-opacity="0.13"></stop><stop offset="100%" stop-color="#9A7BEE" stop-opacity="0"></stop></radialGradient><clipPath id="bcia"><circle cx="1352" cy="806" r="288"></circle></clipPath><filter id="baia" x="-40%" y="-40%" width="180%" height="180%"><feGaussianBlur stdDeviation="9"></feGaussianBlur></filter></defs><circle cx="1352" cy="806" r="291" fill="none" stroke="#9A7BEE" stroke-opacity="0.30" stroke-width="7" filter="url(#baia)"></circle><circle cx="1352" cy="806" r="288" fill="#0A0B0C"></circle><circle cx="1352" cy="806" r="288" fill="url(#bdia)"></circle><g clip-path="url(#bcia)" fill="none" stroke="#9A7BEE" stroke-opacity="0.10"><ellipse cx="1352" cy="700" rx="285" ry="71" stroke-width="1.2"></ellipse><ellipse cx="1352" cy="806" rx="285" ry="86" stroke-width="1.2"></ellipse><ellipse cx="1352" cy="912" rx="285" ry="71" stroke-width="1.2"></ellipse></g><circle cx="1352" cy="806" r="288" fill="none" stroke="#9A7BEE" stroke-opacity="0.55" stroke-width="1.6"></circle><defs><filter id="gia" x="-70%" y="-70%" width="240%" height="240%"><feGaussianBlur stdDeviation="18"></feGaussianBlur></filter><filter id="gia2" x="-70%" y="-70%" width="240%" height="240%"><feGaussianBlur stdDeviation="54"></feGaussianBlur></filter></defs><path d="M459 285 L459 460" stroke="#fff" stroke-opacity="0.14" stroke-width="0.8"></path><path d="M459 285 L610 198" stroke="#fff" stroke-opacity="0.14" stroke-width="0.8"></path><path d="M459 460 L610 372" stroke="#fff" stroke-opacity="0.15" stroke-width="0.8"></path><path d="M459 460 L610 548" stroke="#fff" stroke-opacity="0.06" stroke-width="0.8"></path><path d="M459 635 L610 548" stroke="#fff" stroke-opacity="0.12" stroke-width="0.8"></path><path d="M459 635 L610 722" stroke="#fff" stroke-opacity="0.08" stroke-width="0.8"></path><path d="M610 198 L610 285" stroke="#fff" stroke-opacity="0.10" stroke-width="0.8"></path><path d="M610 198 L610 372" stroke="#fff" stroke-opacity="0.14" stroke-width="0.8"></path><path d="M610 198 L760 198" stroke="#fff" stroke-opacity="0.11" stroke-width="0.8"></path><path d="M610 198 L760 285" stroke="#fff" stroke-opacity="0.13" stroke-width="0.8"></path><path d="M610 285 L610 372" stroke="#fff" stroke-opacity="0.06" stroke-width="0.8"></path><path d="M610 285 L610 460" stroke="#fff" stroke-opacity="0.15" stroke-width="0.8"></path><path d="M610 285 L760 372" stroke="#fff" stroke-opacity="0.16" stroke-width="0.8"></path><path d="M610 372 L610 460" stroke="#fff" stroke-opacity="0.05" stroke-width="0.8"></path><path d="M610 372 L760 285" stroke="#fff" stroke-opacity="0.07" stroke-width="0.8"></path><path d="M610 372 L760 372" stroke="#fff" stroke-opacity="0.12" stroke-width="0.8"></path><path d="M610 372 L760 460" stroke="#fff" stroke-opacity="0.07" stroke-width="0.8"></path><path d="M610 460 L760 372" stroke="#fff" stroke-opacity="0.05" stroke-width="0.8"></path><path d="M610 460 L760 548" stroke="#fff" stroke-opacity="0.13" stroke-width="0.8"></path><path d="M610 548 L610 635" stroke="#fff" stroke-opacity="0.15" stroke-width="0.8"></path><path d="M610 548 L760 548" stroke="#fff" stroke-opacity="0.11" stroke-width="0.8"></path><path d="M610 635 L610 722" stroke="#fff" stroke-opacity="0.12" stroke-width="0.8"></path><path d="M610 635 L760 548" stroke="#fff" stroke-opacity="0.11" stroke-width="0.8"></path><path d="M610 635 L760 635" stroke="#fff" stroke-opacity="0.09" stroke-width="0.8"></path><path d="M610 722 L760 635" stroke="#fff" stroke-opacity="0.12" stroke-width="0.8"></path><path d="M760 198 L760 372" stroke="#fff" stroke-opacity="0.15" stroke-width="0.8"></path><path d="M760 198 L910 285" stroke="#fff" stroke-opacity="0.07" stroke-width="0.8"></path><path d="M760 285 L760 372" stroke="#fff" stroke-opacity="0.11" stroke-width="0.8"></path><path d="M760 285 L760 460" stroke="#fff" stroke-opacity="0.16" stroke-width="0.8"></path><path d="M760 285 L910 372" stroke="#fff" stroke-opacity="0.10" stroke-width="0.8"></path><path d="M760 372 L910 285" stroke="#fff" stroke-opacity="0.08" stroke-width="0.8"></path><path d="M760 372 L910 372" stroke="#fff" stroke-opacity="0.11" stroke-width="0.8"></path><path d="M760 460 L760 635" stroke="#fff" stroke-opacity="0.15" stroke-width="0.8"></path><path d="M760 460 L910 372" stroke="#fff" stroke-opacity="0.15" stroke-width="0.8"></path><path d="M760 460 L910 460" stroke="#fff" stroke-opacity="0.13" stroke-width="0.8"></path><path d="M760 460 L910 548" stroke="#fff" stroke-opacity="0.07" stroke-width="0.8"></path><path d="M760 548 L760 635" stroke="#fff" stroke-opacity="0.15" stroke-width="0.8"></path><path d="M760 548 L760 722" stroke="#fff" stroke-opacity="0.11" stroke-width="0.8"></path><path d="M760 548 L910 460" stroke="#fff" stroke-opacity="0.15" stroke-width="0.8"></path><path d="M760 548 L910 548" stroke="#fff" stroke-opacity="0.10" stroke-width="0.8"></path><path d="M760 635 L910 548" stroke="#fff" stroke-opacity="0.08" stroke-width="0.8"></path><path d="M760 635 L910 722" stroke="#fff" stroke-opacity="0.15" stroke-width="0.8"></path><path d="M760 722 L910 722" stroke="#fff" stroke-opacity="0.08" stroke-width="0.8"></path><path d="M910 198 L910 285" stroke="#fff" stroke-opacity="0.08" stroke-width="0.8"></path><path d="M910 285 L910 372" stroke="#fff" stroke-opacity="0.07" stroke-width="0.8"></path><path d="M910 285 L910 460" stroke="#fff" stroke-opacity="0.08" stroke-width="0.8"></path><path d="M910 285 L1061 285" stroke="#fff" stroke-opacity="0.07" stroke-width="0.8"></path><path d="M910 372 L910 460" stroke="#fff" stroke-opacity="0.11" stroke-width="0.8"></path><path d="M910 372 L910 548" stroke="#fff" stroke-opacity="0.12" stroke-width="0.8"></path><path d="M910 372 L1061 460" stroke="#fff" stroke-opacity="0.06" stroke-width="0.8"></path><path d="M910 460 L910 548" stroke="#fff" stroke-opacity="0.14" stroke-width="0.8"></path><path d="M910 460 L1061 460" stroke="#fff" stroke-opacity="0.07" stroke-width="0.8"></path><path d="M910 548 L910 635" stroke="#fff" stroke-opacity="0.05" stroke-width="0.8"></path><path d="M910 548 L910 722" stroke="#fff" stroke-opacity="0.11" stroke-width="0.8"></path><path d="M910 548 L1061 460" stroke="#fff" stroke-opacity="0.16" stroke-width="0.8"></path><path d="M910 635 L1061 635" stroke="#fff" stroke-opacity="0.12" stroke-width="0.8"></path><g fill="none" stroke="#fff" stroke-opacity="0.26" stroke-width="1.4" stroke-linejoin="round" stroke-linecap="round"><path d="M760.0 110.0 L1061.0 285.0 L1061.0 635.0 L760.0 810.0 L459.0 635.0 L459.0 285.0 Z"></path><path d="M459.0 285.0 L760.0 460.0 L1061.0 285.0"></path><path d="M760.0 460.0 L760.0 810.0"></path><path d="M609.5 197.5 L910.5 372.5"></path><path d="M910.5 197.5 L609.5 372.5"></path><path d="M609.5 372.5 L609.5 722.5"></path><path d="M459.0 460.0 L760.0 635.0"></path><path d="M910.5 372.5 L910.5 722.5"></path><path d="M760.0 635.0 L1061.0 460.0"></path></g><circle cx="459" cy="285" r="4" fill="#1E1E1E" stroke="#fff" stroke-opacity="0.40" stroke-width="1"></circle><circle cx="459" cy="460" r="4" fill="#1E1E1E" stroke="#fff" stroke-opacity="0.40" stroke-width="1"></circle><circle cx="459" cy="635" r="4" fill="#1E1E1E" stroke="#fff" stroke-opacity="0.40" stroke-width="1"></circle><circle cx="610" cy="198" r="4" fill="#1E1E1E" stroke="#fff" stroke-opacity="0.40" stroke-width="1"></circle><circle cx="610" cy="285" r="4" fill="#1E1E1E" stroke="#fff" stroke-opacity="0.40" stroke-width="1"></circle><circle cx="610" cy="372" r="4" fill="#1E1E1E" stroke="#fff" stroke-opacity="0.40" stroke-width="1"></circle><circle cx="610" cy="460" r="4" fill="#1E1E1E" stroke="#fff" stroke-opacity="0.40" stroke-width="1"></circle><circle cx="610" cy="548" r="4" fill="#1E1E1E" stroke="#fff" stroke-opacity="0.40" stroke-width="1"></circle><circle cx="610" cy="635" r="4" fill="#1E1E1E" stroke="#fff" stroke-opacity="0.40" stroke-width="1"></circle><circle cx="610" cy="722" r="4" fill="#1E1E1E" stroke="#fff" stroke-opacity="0.40" stroke-width="1"></circle><circle cx="760" cy="198" r="4" fill="#1E1E1E" stroke="#fff" stroke-opacity="0.40" stroke-width="1"></circle><circle cx="760" cy="285" r="4" fill="#1E1E1E" stroke="#fff" stroke-opacity="0.40" stroke-width="1"></circle><circle cx="760" cy="372" r="4" fill="#1E1E1E" stroke="#fff" stroke-opacity="0.40" stroke-width="1"></circle><circle cx="760" cy="460" r="4" fill="#1E1E1E" stroke="#fff" stroke-opacity="0.40" stroke-width="1"></circle><circle cx="760" cy="548" r="4" fill="#1E1E1E" stroke="#fff" stroke-opacity="0.40" stroke-width="1"></circle><circle cx="760" cy="635" r="4" fill="#1E1E1E" stroke="#fff" stroke-opacity="0.40" stroke-width="1"></circle><circle cx="760" cy="722" r="4" fill="#1E1E1E" stroke="#fff" stroke-opacity="0.40" stroke-width="1"></circle><circle cx="910" cy="198" r="4" fill="#1E1E1E" stroke="#fff" stroke-opacity="0.40" stroke-width="1"></circle><circle cx="910" cy="285" r="4" fill="#1E1E1E" stroke="#fff" stroke-opacity="0.40" stroke-width="1"></circle><circle cx="910" cy="372" r="4" fill="#1E1E1E" stroke="#fff" stroke-opacity="0.40" stroke-width="1"></circle><circle cx="910" cy="460" r="4" fill="#1E1E1E" stroke="#fff" stroke-opacity="0.40" stroke-width="1"></circle><circle cx="910" cy="548" r="4" fill="#1E1E1E" stroke="#fff" stroke-opacity="0.40" stroke-width="1"></circle><circle cx="910" cy="635" r="4" fill="#1E1E1E" stroke="#fff" stroke-opacity="0.40" stroke-width="1"></circle><circle cx="910" cy="722" r="4" fill="#1E1E1E" stroke="#fff" stroke-opacity="0.40" stroke-width="1"></circle><circle cx="1061" cy="285" r="4" fill="#1E1E1E" stroke="#fff" stroke-opacity="0.40" stroke-width="1"></circle><circle cx="1061" cy="460" r="4" fill="#1E1E1E" stroke="#fff" stroke-opacity="0.40" stroke-width="1"></circle><circle cx="1061" cy="635" r="4" fill="#1E1E1E" stroke="#fff" stroke-opacity="0.40" stroke-width="1"></circle><path d="M459.0 285.0 L609.5 372.5 L760.0 635.0 L910.5 547.5 L1061.0 635.0" fill="none" stroke="#6B4FBB" stroke-width="22" opacity="0.5" filter="url(#gia2)"></path><path d="M459.0 285.0 L609.5 372.5 L760.0 635.0 L910.5 547.5 L1061.0 635.0" fill="none" stroke="#9A7BEE" stroke-width="6" opacity="0.5" filter="url(#gia)"></path><path d="M459.0 285.0 L609.5 372.5 L760.0 635.0 L910.5 547.5 L1061.0 635.0" fill="none" stroke="#9A7BEE" stroke-width="2.6"></path><circle cx="459" cy="285" r="6.5" fill="#9A7BEE"></circle><circle cx="459" cy="285" r="17" fill="none" stroke="#9A7BEE" stroke-opacity="0.5" stroke-width="1"></circle><circle cx="610" cy="372" r="6.5" fill="#9A7BEE"></circle><circle cx="610" cy="372" r="17" fill="none" stroke="#9A7BEE" stroke-opacity="0.5" stroke-width="1"></circle><circle cx="760" cy="635" r="6.5" fill="#9A7BEE"></circle><circle cx="760" cy="635" r="17" fill="none" stroke="#9A7BEE" stroke-opacity="0.5" stroke-width="1"></circle><circle cx="910" cy="548" r="6.5" fill="#9A7BEE"></circle><circle cx="910" cy="548" r="17" fill="none" stroke="#9A7BEE" stroke-opacity="0.5" stroke-width="1"></circle><circle cx="1061" cy="635" r="6.5" fill="#9A7BEE"></circle><circle cx="1061" cy="635" r="17" fill="none" stroke="#9A7BEE" stroke-opacity="0.5" stroke-width="1"></circle></svg>