<svg xmlns="http://www.w3.org/2000/svg" viewBox="0 0 1440 900" width="1440" height="900"><defs><radialGradient id="vigint" cx="50%" cy="46%" r="72%"><stop offset="0%" stop-color="#2C2C2C"></stop><stop offset="100%" stop-color="#171717"></stop></radialGradient></defs><rect x="0" y="0" width="1440" height="900" fill="url(#vigint)"></rect><defs><filter id="gint" x="-70%" y="-70%" width="240%" height="240%"><feGaussianBlur stdDeviation="18"></feGaussianBlur></filter><filter id="gint2" x="-70%" y="-70%" width="240%" height="240%"><feGaussianBlur stdDeviation="54"></feGaussianBlur></filter></defs><path d="M-120 569 C381 699 679 305 760 442" fill="none" stroke="#fff" stroke-opacity="0.17" stroke-width="1.1"></path><path d="M760 474 C1159 463 1324 168 1560 848" fill="none" stroke="#fff" stroke-opacity="0.18" stroke-width="0.7"></path><path d="M-120 307 C281 23 533 403 760 422" fill="none" stroke="#fff" stroke-opacity="0.16" stroke-width="1.2"></path><path d="M760 480 C851 475 1303 347 1560 390" fill="none" stroke="#fff" stroke-opacity="0.12" stroke-width="0.7"></path><path d="M-120 733 C377 833 439 324 760 534" fill="none" stroke="#fff" stroke-opacity="0.09" stroke-width="0.7"></path><path d="M760 509 C1099 477 1116 424 1560 714" fill="none" stroke="#fff" stroke-opacity="0.12" stroke-width="0.8"></path><path d="M-120 180 C242 948 428 324 760 437" fill="none" stroke="#fff" stroke-opacity="0.16" stroke-width="0.9"></path><path d="M760 357 C879 419 1160 217 1560 332" fill="none" stroke="#fff" stroke-opacity="0.18" stroke-width="0.9"></path><path d="M-120 338 C236 629 438 386 760 457" fill="none" stroke="#fff" stroke-opacity="0.10" stroke-width="0.7"></path><path d="M760 497 C985 381 1169 847 1560 19" fill="none" stroke="#fff" stroke-opacity="0.15" stroke-width="0.7"></path><path d="M-120 124 C322 345 393 497 760 429" fill="none" stroke="#fff" stroke-opacity="0.15" stroke-width="1.0"></path><path d="M760 412 C909 429 1308 164 1560 909" fill="none" stroke="#fff" stroke-opacity="0.15" stroke-width="1.2"></path><path d="M-120 881 C442 47 636 520 760 430" fill="none" stroke="#fff" stroke-opacity="0.06" stroke-width="0.9"></path><path d="M760 379 C1076 523 1229 488 1560 625" fill="none" stroke="#fff" stroke-opacity="0.13" stroke-width="1.0"></path><path d="M-120 592 C276 809 378 441 760 501" fill="none" stroke="#fff" stroke-opacity="0.05" stroke-width="1.0"></path><path d="M760 434 C847 523 1214 541 1560 613" fill="none" stroke="#fff" stroke-opacity="0.06" stroke-width="1.1"></path><path d="M-120 943 C423 826 582 398 760 411" fill="none" stroke="#fff" stroke-opacity="0.14" stroke-width="0.8"></path><path d="M760 505 C1046 546 1101 778 1560 472" fill="none" stroke="#fff" stroke-opacity="0.22" stroke-width="0.8"></path><path d="M-120 877 C458 804 498 438 760 471" fill="none" stroke="#fff" stroke-opacity="0.14" stroke-width="0.8"></path><path d="M760 395 C900 468 1222 -91 1560 161" fill="none" stroke="#fff" stroke-opacity="0.16" stroke-width="1.0"></path><path d="M-120 240 C460 395 638 450 760 406" fill="none" stroke="#fff" stroke-opacity="0.12" stroke-width="0.9"></path><path d="M760 413 C1005 390 1211 677 1560 154" fill="none" stroke="#fff" stroke-opacity="0.13" stroke-width="0.7"></path><path d="M-120 585 C329 549 656 375 760 473" fill="none" stroke="#fff" stroke-opacity="0.16" stroke-width="1.1"></path><path d="M760 488 C841 195 1259 288 1560 270" fill="none" stroke="#fff" stroke-opacity="0.11" stroke-width="0.8"></path><path d="M-120 544 C469 -55 519 491 760 415" fill="none" stroke="#fff" stroke-opacity="0.10" stroke-width="0.8"></path><path d="M760 424 C879 401 1104 14 1560 714" fill="none" stroke="#fff" stroke-opacity="0.17" stroke-width="0.6"></path><path d="M-120 275 C537 839 374 495 760 473" fill="none" stroke="#fff" stroke-opacity="0.08" stroke-width="0.9"></path><path d="M760 488 C1051 418 1253 948 1560 221" fill="none" stroke="#fff" stroke-opacity="0.12" stroke-width="1.0"></path><path d="M-120 61 C196 465 576 486 760 493" fill="none" stroke="#fff" stroke-opacity="0.17" stroke-width="0.8"></path><path d="M760 464 C942 435 1394 1004 1560 320" fill="none" stroke="#fff" stroke-opacity="0.13" stroke-width="0.7"></path><path d="M-120 279 C338 371 482 469 760 443" fill="none" stroke="#fff" stroke-opacity="0.19" stroke-width="0.8"></path><path d="M760 535 C1130 425 1259 868 1560 353" fill="none" stroke="#fff" stroke-opacity="0.07" stroke-width="0.8"></path><path d="M-120 74 C587 300 435 577 760 404" fill="none" stroke="#fff" stroke-opacity="0.15" stroke-width="0.8"></path><path d="M760 466 C1028 481 1374 615 1560 -13" fill="none" stroke="#fff" stroke-opacity="0.09" stroke-width="0.7"></path><path d="M-120 794 C396 552 378 607 760 532" fill="none" stroke="#fff" stroke-opacity="0.06" stroke-width="1.1"></path><path d="M760 482 C872 578 1130 651 1560 719" fill="none" stroke="#fff" stroke-opacity="0.21" stroke-width="0.9"></path><path d="M-120 862 C558 523 661 408 760 414" fill="none" stroke="#fff" stroke-opacity="0.12" stroke-width="1.1"></path><path d="M760 492 C856 488 1352 506 1560 628" fill="none" stroke="#fff" stroke-opacity="0.19" stroke-width="0.8"></path><path d="M-120 389 C447 136 378 407 760 450" fill="none" stroke="#fff" stroke-opacity="0.14" stroke-width="0.7"></path><path d="M760 412 C876 378 1341 418 1560 496" fill="none" stroke="#fff" stroke-opacity="0.21" stroke-width="0.8"></path><path d="M-120 448 C491 265 555 390 760 455" fill="none" stroke="#fff" stroke-opacity="0.21" stroke-width="0.8"></path><path d="M760 493 C968 377 1215 159 1560 339" fill="none" stroke="#fff" stroke-opacity="0.07" stroke-width="0.8"></path><path d="M-120 899 C398 413 471 597 760 459" fill="none" stroke="#fff" stroke-opacity="0.14" stroke-width="1.0"></path><path d="M760 367 C998 508 1305 125 1560 104" fill="none" stroke="#fff" stroke-opacity="0.12" stroke-width="1.0"></path><path d="M-120 883 C541 424 619 498 760 382" fill="none" stroke="#fff" stroke-opacity="0.08" stroke-width="1.1"></path><path d="M760 518 C1047 413 1104 268 1560 721" fill="none" stroke="#fff" stroke-opacity="0.06" stroke-width="1.0"></path><path d="M-120 564 C222 477 692 480 760 434" fill="none" stroke="#fff" stroke-opacity="0.12" stroke-width="1.2"></path><path d="M760 424 C862 547 1372 946 1560 883" fill="none" stroke="#fff" stroke-opacity="0.12" stroke-width="0.7"></path><path d="M-120 306 C582 456 497 492 760 481" fill="none" stroke="#fff" stroke-opacity="0.11" stroke-width="1.1"></path><path d="M760 385 C879 503 1121 53 1560 595" fill="none" stroke="#fff" stroke-opacity="0.08" stroke-width="1.2"></path><path d="M-120 420 C210 144 598 409 760 402" fill="none" stroke="#fff" stroke-opacity="0.10" stroke-width="1.1"></path><path d="M760 408 C823 584 1381 476 1560 267" fill="none" stroke="#fff" stroke-opacity="0.20" stroke-width="1.2"></path><path d="M-120 61 C297 71 601 334 760 435" fill="none" stroke="#fff" stroke-opacity="0.21" stroke-width="0.8"></path><path d="M760 431 C1025 396 1398 -47 1560 -29" fill="none" stroke="#fff" stroke-opacity="0.16" stroke-width="1.2"></path><path d="M-120 783 C494 281 534 584 760 457" fill="none" stroke="#fff" stroke-opacity="0.14" stroke-width="0.8"></path><path d="M760 454 C1102 485 1220 154 1560 177" fill="none" stroke="#fff" stroke-opacity="0.21" stroke-width="0.7"></path><path d="M-120 325 C265 398 431 496 760 432" fill="none" stroke="#fff" stroke-opacity="0.19" stroke-width="0.9"></path><path d="M760 439 C1124 286 1371 687 1560 -6" fill="none" stroke="#fff" stroke-opacity="0.07" stroke-width="0.8"></path><path d="M-120 391 C458 903 383 651 760 444" fill="none" stroke="#fff" stroke-opacity="0.20" stroke-width="0.8"></path><path d="M760 425 C1077 549 1100 492 1560 921" fill="none" stroke="#fff" stroke-opacity="0.20" stroke-width="1.2"></path><path d="M-120 431 C532 498 565 432 760 514" fill="none" stroke="#fff" stroke-opacity="0.16" stroke-width="0.6"></path><path d="M760 431 C951 213 1256 188 1560 -42" fill="none" stroke="#fff" stroke-opacity="0.06" stroke-width="1.2"></path><path d="M-120 686 C611 609 614 385 760 476" fill="none" stroke="#fff" stroke-opacity="0.09" stroke-width="0.8"></path><path d="M760 452 C847 400 1178 226 1560 124" fill="none" stroke="#fff" stroke-opacity="0.20" stroke-width="1.2"></path><path d="M-120 764 C201 986 566 602 760 438" fill="none" stroke="#fff" stroke-opacity="0.06" stroke-width="1.0"></path><path d="M760 464 C1004 467 1309 359 1560 227" fill="none" stroke="#fff" stroke-opacity="0.20" stroke-width="0.9"></path><path d="M-120 58 C580 648 640 388 760 489" fill="none" stroke="#fff" stroke-opacity="0.13" stroke-width="1.2"></path><path d="M760 451 C887 496 1230 860 1560 -21" fill="none" stroke="#fff" stroke-opacity="0.14" stroke-width="1.0"></path><path d="M-120 56 C528 268 581 428 760 435" fill="none" stroke="#fff" stroke-opacity="0.20" stroke-width="1.0"></path><path d="M760 497 C1019 471 1332 792 1560 811" fill="none" stroke="#fff" stroke-opacity="0.10" stroke-width="0.9"></path><path d="M-120 910 C345 808 407 302 760 455" fill="none" stroke="#fff" stroke-opacity="0.11" stroke-width="0.9"></path><path d="M760 444 C1153 401 1373 269 1560 728" fill="none" stroke="#fff" stroke-opacity="0.19" stroke-width="1.1"></path><path d="M-120 261 C543 776 518 521 760 439" fill="none" stroke="#fff" stroke-opacity="0.14" stroke-width="0.7"></path><path d="M760 459 C1089 361 1139 456 1560 71" fill="none" stroke="#fff" stroke-opacity="0.11" stroke-width="1.0"></path><path d="M-120 397 C599 833 668 555 760 414" fill="none" stroke="#fff" stroke-opacity="0.12" stroke-width="1.2"></path><path d="M760 486 C1046 542 1359 957 1560 30" fill="none" stroke="#fff" stroke-opacity="0.06" stroke-width="1.1"></path><path d="M-120 125 C197 541 689 334 760 461" fill="none" stroke="#fff" stroke-opacity="0.07" stroke-width="1.1"></path><path d="M760 403 C956 432 1253 892 1560 448" fill="none" stroke="#fff" stroke-opacity="0.16" stroke-width="0.6"></path><path d="M-120 -25 C222 334 568 596 760 408" fill="none" stroke="#fff" stroke-opacity="0.11" stroke-width="0.7"></path><path d="M760 457 C927 400 1263 368 1560 167" fill="none" stroke="#fff" stroke-opacity="0.13" stroke-width="0.7"></path><path d="M-120 418 C476 695 608 622 760 458" fill="none" stroke="#fff" stroke-opacity="0.15" stroke-width="0.9"></path><path d="M760 373 C1023 319 1255 659 1560 371" fill="none" stroke="#fff" stroke-opacity="0.13" stroke-width="0.9"></path><path d="M-120 547 C224 -81 376 384 760 424" fill="none" stroke="#fff" stroke-opacity="0.18" stroke-width="1.1"></path><path d="M760 495 C942 538 1374 775 1560 706" fill="none" stroke="#fff" stroke-opacity="0.14" stroke-width="0.9"></path><path d="M-120 537 C360 595 387 347 760 442" fill="none" stroke="#fff" stroke-opacity="0.08" stroke-width="0.8"></path><path d="M760 360 C1090 383 1198 884 1560 571" fill="none" stroke="#fff" stroke-opacity="0.07" stroke-width="1.0"></path><path d="M-120 184 C483 162 444 531 760 441" fill="none" stroke="#fff" stroke-opacity="0.15" stroke-width="1.2"></path><path d="M760 444 C989 361 1212 735 1560 8" fill="none" stroke="#fff" stroke-opacity="0.10" stroke-width="1.0"></path><path d="M-120 348 C405 -8 616 471 760 457" fill="none" stroke="#fff" stroke-opacity="0.16" stroke-width="0.8"></path><path d="M760 392 C1047 485 1260 -66 1560 113" fill="none" stroke="#fff" stroke-opacity="0.20" stroke-width="1.1"></path><path d="M-120 431 C240 1009 666 366 760 488" fill="none" stroke="#fff" stroke-opacity="0.13" stroke-width="0.7"></path><path d="M760 437 C874 436 1364 758 1560 574" fill="none" stroke="#fff" stroke-opacity="0.06" stroke-width="1.2"></path><path d="M-120 599 C526 -102 565 249 760 461" fill="none" stroke="#fff" stroke-opacity="0.12" stroke-width="0.8"></path><path d="M760 518 C891 391 1134 -39 1560 455" fill="none" stroke="#fff" stroke-opacity="0.19" stroke-width="0.8"></path><path d="M-120 -41 C416 829 454 488 760 456" fill="none" stroke="#fff" stroke-opacity="0.14" stroke-width="1.0"></path><path d="M760 504 C1027 599 1313 757 1560 517" fill="none" stroke="#fff" stroke-opacity="0.21" stroke-width="0.7"></path><path d="M-120 270 C572 598 661 547 760 436" fill="none" stroke="#fff" stroke-opacity="0.20" stroke-width="0.7"></path><path d="M760 469 C1137 433 1263 682 1560 850" fill="none" stroke="#fff" stroke-opacity="0.13" stroke-width="1.0"></path><path d="M-120 229 C608 329 613 413 760 518" fill="none" stroke="#fff" stroke-opacity="0.10" stroke-width="0.7"></path><path d="M760 515 C908 578 1306 861 1560 871" fill="none" stroke="#fff" stroke-opacity="0.18" stroke-width="1.1"></path><path d="M-120 791 C295 771 562 357 760 389" fill="none" stroke="#fff" stroke-opacity="0.11" stroke-width="1.1"></path><path d="M760 408 C1137 412 1375 -62 1560 15" fill="none" stroke="#fff" stroke-opacity="0.06" stroke-width="1.1"></path><path d="M-120 734 C567 136 422 462 760 495" fill="none" stroke="#fff" stroke-opacity="0.12" stroke-width="1.0"></path><path d="M760 437 C1007 323 1134 909 1560 5" fill="none" stroke="#fff" stroke-opacity="0.18" stroke-width="0.9"></path><path d="M-120 737 C460 203 699 646 760 493" fill="none" stroke="#fff" stroke-opacity="0.11" stroke-width="1.2"></path><path d="M760 482 C989 372 1227 101 1560 480" fill="none" stroke="#fff" stroke-opacity="0.16" stroke-width="0.7"></path><path d="M-120 41 C577 365 360 596 760 469" fill="none" stroke="#fff" stroke-opacity="0.07" stroke-width="0.6"></path><path d="M760 494 C945 332 1243 716 1560 527" fill="none" stroke="#fff" stroke-opacity="0.14" stroke-width="0.7"></path><path d="M-120 530 C374 320 442 544 760 438" fill="none" stroke="#fff" stroke-opacity="0.12" stroke-width="0.7"></path><path d="M760 468 C1024 481 1165 222 1560 786" fill="none" stroke="#fff" stroke-opacity="0.06" stroke-width="0.9"></path><path d="M-120 942 C462 770 537 466 760 455" fill="none" stroke="#fff" stroke-opacity="0.22" stroke-width="0.8"></path><path d="M760 439 C995 570 1366 659 1560 263" fill="none" stroke="#fff" stroke-opacity="0.06" stroke-width="0.6"></path><path d="M-120 139 C281 963 486 569 760 423" fill="none" stroke="#fff" stroke-opacity="0.13" stroke-width="0.8"></path><path d="M760 449 C838 427 1298 673 1560 570" fill="none" stroke="#fff" stroke-opacity="0.14" stroke-width="0.9"></path><path d="M-120 202 C322 755 579 437 760 444" fill="none" stroke="#fff" stroke-opacity="0.09" stroke-width="0.7"></path><path d="M760 374 C915 546 1386 391 1560 356" fill="none" stroke="#fff" stroke-opacity="0.17" stroke-width="0.6"></path><path d="M-120 608 C599 863 457 481 760 490" fill="none" stroke="#fff" stroke-opacity="0.06" stroke-width="0.8"></path><path d="M760 479 C1022 373 1174 928 1560 728" fill="none" stroke="#fff" stroke-opacity="0.13" stroke-width="0.8"></path><path d="M-120 313 C510 -84 638 442 760 483" fill="none" stroke="#fff" stroke-opacity="0.12" stroke-width="0.8"></path><path d="M760 465 C1112 381 1352 -29 1560 439" fill="none" stroke="#fff" stroke-opacity="0.06" stroke-width="1.0"></path><path d="M-120 180 C372 272 472 481 760 407" fill="none" stroke="#fff" stroke-opacity="0.15" stroke-width="1.0"></path><path d="M760 455 C1021 422 1193 385 1560 554" fill="none" stroke="#fff" stroke-opacity="0.10" stroke-width="0.8"></path><path d="M-120 289 C486 438 373 575 760 472" fill="none" stroke="#fff" stroke-opacity="0.06" stroke-width="0.8"></path><path d="M760 416 C925 383 1199 867 1560 542" fill="none" stroke="#fff" stroke-opacity="0.06" stroke-width="0.8"></path><path d="M-120 249 C551 546 481 503 760 444" fill="none" stroke="#fff" stroke-opacity="0.17" stroke-width="0.8"></path><path d="M760 426 C965 476 1215 1027 1560 12" fill="none" stroke="#fff" stroke-opacity="0.18" stroke-width="0.7"></path><path d="M-120 729 C419 228 509 458 760 411" fill="none" stroke="#fff" stroke-opacity="0.06" stroke-width="1.2"></path><path d="M760 466 C1153 360 1340 584 1560 24" fill="none" stroke="#fff" stroke-opacity="0.16" stroke-width="1.2"></path><path d="M-120 768 C424 597 412 354 760 348" fill="none" stroke="#fff" stroke-opacity="0.10" stroke-width="1.2"></path><path d="M760 505 C1062 443 1126 853 1560 773" fill="none" stroke="#fff" stroke-opacity="0.18" stroke-width="1.1"></path><path d="M-120 894 C342 744 562 461 760 410" fill="none" stroke="#fff" stroke-opacity="0.16" stroke-width="0.9"></path><path d="M760 426 C1133 341 1198 110 1560 325" fill="none" stroke="#fff" stroke-opacity="0.11" stroke-width="0.7"></path><path d="M-120 178 C514 987 449 398 760 396" fill="none" stroke="#fff" stroke-opacity="0.15" stroke-width="0.9"></path><path d="M760 492 C977 451 1388 307 1560 773" fill="none" stroke="#fff" stroke-opacity="0.08" stroke-width="1.0"></path><path d="M-120 575 C407 -70 583 348 760 459" fill="none" stroke="#fff" stroke-opacity="0.16" stroke-width="0.9"></path><path d="M760 388 C835 479 1158 882 1560 704" fill="none" stroke="#fff" stroke-opacity="0.11" stroke-width="0.9"></path><path d="M-120 801 C261 575 578 339 760 496" fill="none" stroke="#fff" stroke-opacity="0.11" stroke-width="1.0"></path><path d="M760 437 C1122 417 1178 777 1560 -14" fill="none" stroke="#fff" stroke-opacity="0.20" stroke-width="1.1"></path><path d="M-120 803 C315 269 691 419 760 481" fill="none" stroke="#fff" stroke-opacity="0.17" stroke-width="1.1"></path><path d="M760 489 C955 346 1224 -39 1560 835" fill="none" stroke="#fff" stroke-opacity="0.22" stroke-width="1.1"></path><path d="M-120 478 C517 828 654 398 760 487" fill="none" stroke="#fff" stroke-opacity="0.19" stroke-width="0.7"></path><path d="M760 438 C1156 321 1286 35 1560 653" fill="none" stroke="#fff" stroke-opacity="0.17" stroke-width="0.9"></path><path d="M-120 344 C497 -78 458 456 760 462" fill="none" stroke="#fff" stroke-opacity="0.16" stroke-width="0.7"></path><path d="M760 473 C1151 412 1202 131 1560 -44" fill="none" stroke="#fff" stroke-opacity="0.21" stroke-width="1.0"></path><path d="M-120 293 C469 396 391 482 760 436" fill="none" stroke="#fff" stroke-opacity="0.12" stroke-width="0.7"></path><path d="M760 425 C1058 591 1186 1010 1560 357" fill="none" stroke="#fff" stroke-opacity="0.20" stroke-width="1.2"></path><path d="M-120 227 C600 1006 373 478 760 494" fill="none" stroke="#fff" stroke-opacity="0.07" stroke-width="0.7"></path><path d="M760 442 C1036 487 1387 73 1560 -7" fill="none" stroke="#fff" stroke-opacity="0.10" stroke-width="0.8"></path><path d="M-120 216 C245 383 527 579 760 390" fill="none" stroke="#fff" stroke-opacity="0.17" stroke-width="1.2"></path><path d="M760 477 C952 496 1252 991 1560 219" fill="none" stroke="#fff" stroke-opacity="0.05" stroke-width="1.0"></path><path d="M-120 -23 C591 449 374 414 760 442" fill="none" stroke="#fff" stroke-opacity="0.12" stroke-width="1.1"></path><path d="M760 517 C1072 487 1181 -90 1560 631" fill="none" stroke="#fff" stroke-opacity="0.16" stroke-width="0.7"></path><path d="M-120 794 C612 12 452 489 760 500" fill="none" stroke="#fff" stroke-opacity="0.12" stroke-width="0.9"></path><path d="M760 470 C1131 461 1242 47 1560 429" fill="none" stroke="#fff" stroke-opacity="0.17" stroke-width="1.1"></path><path d="M-120 410 C223 552 631 447 760 410" fill="none" stroke="#fff" stroke-opacity="0.13" stroke-width="1.0"></path><path d="M760 437 C1049 309 1378 278 1560 936" fill="none" stroke="#fff" stroke-opacity="0.16" stroke-width="1.0"></path><path d="M-120 740 C473 116 675 466 760 475" fill="none" stroke="#fff" stroke-opacity="0.09" stroke-width="0.7"></path><path d="M760 353 C1093 428 1354 586 1560 122" fill="none" stroke="#fff" stroke-opacity="0.10" stroke-width="1.1"></path><path d="M-120 777 C390 262 467 419 760 431" fill="none" stroke="#fff" stroke-opacity="0.13" stroke-width="0.9"></path><path d="M760 467 C882 389 1153 620 1560 2" fill="none" stroke="#fff" stroke-opacity="0.11" stroke-width="0.6"></path><path d="M-120 550 C440 870 530 340 760 441" fill="none" stroke="#fff" stroke-opacity="0.10" stroke-width="1.0"></path><path d="M760 445 C827 308 1375 403 1560 931" fill="none" stroke="#fff" stroke-opacity="0.20" stroke-width="0.7"></path><path d="M-120 188 C320 380 491 309 760 477" fill="none" stroke="#fff" stroke-opacity="0.20" stroke-width="1.1"></path><path d="M760 413 C1001 521 1308 -43 1560 249" fill="none" stroke="#fff" stroke-opacity="0.21" stroke-width="1.2"></path><path d="M-120 148 C502 -109 541 399 760 433" fill="none" stroke="#fff" stroke-opacity="0.14" stroke-width="0.6"></path><path d="M760 416 C978 344 1381 676 1560 354" fill="none" stroke="#fff" stroke-opacity="0.11" stroke-width="1.1"></path><path d="M-120 25 C325 320 699 341 760 432" fill="none" stroke="#fff" stroke-opacity="0.17" stroke-width="1.2"></path><path d="M760 459 C876 304 1317 963 1560 744" fill="none" stroke="#fff" stroke-opacity="0.20" stroke-width="1.1"></path><path d="M-120 431 C443 746 638 425 760 420" fill="none" stroke="#fff" stroke-opacity="0.11" stroke-width="1.1"></path><path d="M760 511 C1009 395 1140 956 1560 922" fill="none" stroke="#fff" stroke-opacity="0.10" stroke-width="1.1"></path><path d="M-120 100 C559 243 543 521 760 486" fill="none" stroke="#fff" stroke-opacity="0.16" stroke-width="0.7"></path><path d="M760 462 C838 584 1232 660 1560 42" fill="none" stroke="#fff" stroke-opacity="0.17" stroke-width="1.1"></path><path d="M-120 830 C337 566 695 520 760 448" fill="none" stroke="#fff" stroke-opacity="0.13" stroke-width="0.7"></path><path d="M760 367 C848 369 1344 178 1560 929" fill="none" stroke="#fff" stroke-opacity="0.20" stroke-width="0.9"></path><path d="M-120 552 C277 949 493 490 760 445" fill="none" stroke="#fff" stroke-opacity="0.14" stroke-width="1.1"></path><path d="M760 393 C1081 492 1271 546 1560 184" fill="none" stroke="#fff" stroke-opacity="0.15" stroke-width="0.8"></path><path d="M-120 684 C319 791 492 558 760 466" fill="none" stroke="#fff" stroke-opacity="0.16" stroke-width="1.2"></path><path d="M760 467 C1140 611 1391 860 1560 434" fill="none" stroke="#fff" stroke-opacity="0.20" stroke-width="1.2"></path><path d="M-120 29 C416 898 516 526 760 483" fill="none" stroke="#fff" stroke-opacity="0.14" stroke-width="0.9"></path><path d="M760 454 C852 334 1245 -122 1560 189" fill="none" stroke="#fff" stroke-opacity="0.15" stroke-width="1.2"></path><path d="M-120 904 C392 924 363 440 760 482" fill="none" stroke="#fff" stroke-opacity="0.20" stroke-width="0.8"></path><path d="M760 400 C1046 369 1294 91 1560 703" fill="none" stroke="#fff" stroke-opacity="0.07" stroke-width="0.9"></path><path d="M-120 500 C569 669 599 368 760 433" fill="none" stroke="#fff" stroke-opacity="0.06" stroke-width="0.9"></path><path d="M760 424 C941 324 1231 761 1560 388" fill="none" stroke="#fff" stroke-opacity="0.15" stroke-width="1.2"></path><path d="M-120 364 C304 391 666 319 760 481" fill="none" stroke="#fff" stroke-opacity="0.20" stroke-width="1.2"></path><path d="M760 388 C882 449 1113 191 1560 808" fill="none" stroke="#fff" stroke-opacity="0.20" stroke-width="0.7"></path><path d="M-120 572 C602 67 442 382 760 444" fill="none" stroke="#fff" stroke-opacity="0.17" stroke-width="1.2"></path><path d="M760 441 C961 368 1362 713 1560 821" fill="none" stroke="#fff" stroke-opacity="0.21" stroke-width="0.7"></path><path d="M-120 450 C338 -21 441 548 760 469" fill="none" stroke="#fff" stroke-opacity="0.09" stroke-width="0.9"></path><path d="M760 512 C956 483 1318 805 1560 101" fill="none" stroke="#fff" stroke-opacity="0.12" stroke-width="1.1"></path><path d="M-120 179 C203 980 572 161 760 501" fill="none" stroke="#fff" stroke-opacity="0.12" stroke-width="1.1"></path><path d="M760 450 C1138 450 1255 536 1560 431" fill="none" stroke="#fff" stroke-opacity="0.18" stroke-width="1.0"></path><circle cx="545" cy="97" r="0.6" fill="#fff" opacity="0.20"></circle><circle cx="632" cy="473" r="0.6" fill="#fff" opacity="0.07"></circle><circle cx="1239" cy="839" r="1.1" fill="#fff" opacity="0.12"></circle><circle cx="530" cy="267" r="0.6" fill="#fff" opacity="0.07"></circle><circle cx="410" cy="644" r="0.6" fill="#fff" opacity="0.07"></circle><circle cx="1150" cy="330" r="0.5" fill="#fff" opacity="0.10"></circle><circle cx="1167" cy="621" r="0.6" fill="#fff" opacity="0.11"></circle><circle cx="495" cy="803" r="1.1" fill="#fff" opacity="0.29"></circle><circle cx="1360" cy="292" r="0.5" fill="#fff" opacity="0.11"></circle><circle cx="606" cy="664" r="1.0" fill="#fff" opacity="0.26"></circle><circle cx="737" cy="417" r="0.8" fill="#fff" opacity="0.12"></circle><circle cx="1334" cy="568" r="0.9" fill="#fff" opacity="0.19"></circle><circle cx="526" cy="366" r="1.0" fill="#fff" opacity="0.14"></circle><circle cx="509" cy="41" r="1.0" fill="#fff" opacity="0.22"></circle><circle cx="706" cy="883" r="0.8" fill="#fff" opacity="0.23"></circle><circle cx="1174" cy="16" r="0.4" fill="#fff" opacity="0.08"></circle><circle cx="1115" cy="813" r="0.5" fill="#fff" opacity="0.18"></circle><circle cx="83" cy="230" r="1.1" fill="#fff" opacity="0.23"></circle><circle cx="63" cy="663" r="0.9" fill="#fff" opacity="0.19"></circle><circle cx="409" cy="791" r="1.0" fill="#fff" opacity="0.30"></circle><circle cx="236" cy="524" r="0.7" fill="#fff" opacity="0.22"></circle><circle cx="698" cy="739" r="1.1" fill="#fff" opacity="0.25"></circle><circle cx="944" cy="537" r="0.5" fill="#fff" opacity="0.04"></circle><circle cx="1312" cy="262" r="0.7" fill="#fff" opacity="0.20"></circle><circle cx="792" cy="38" r="0.5" fill="#fff" opacity="0.11"></circle><circle cx="627" cy="659" r="0.7" fill="#fff" opacity="0.15"></circle><circle cx="676" cy="402" r="0.4" fill="#fff" opacity="0.10"></circle><circle cx="1041" cy="794" r="0.9" fill="#fff" opacity="0.12"></circle><circle cx="336" cy="144" r="0.9" fill="#fff" opacity="0.23"></circle><circle cx="586" cy="817" r="0.8" fill="#fff" opacity="0.23"></circle><circle cx="792" cy="751" r="0.5" fill="#fff" opacity="0.06"></circle><circle cx="819" cy="896" r="0.8" fill="#fff" opacity="0.19"></circle><circle cx="1283" cy="626" r="0.7" fill="#fff" opacity="0.11"></circle><circle cx="353" cy="372" r="0.4" fill="#fff" opacity="0.16"></circle><circle cx="658" cy="332" r="0.6" fill="#fff" opacity="0.20"></circle><circle cx="1368" cy="170" r="1.1" fill="#fff" opacity="0.22"></circle><circle cx="602" cy="474" r="0.6" fill="#fff" opacity="0.16"></circle><circle cx="1045" cy="777" r="0.5" fill="#fff" opacity="0.12"></circle><circle cx="364" cy="230" r="0.4" fill="#fff" opacity="0.03"></circle><circle cx="474" cy="271" r="1.0" fill="#fff" opacity="0.12"></circle><circle cx="335" cy="479" r="0.8" fill="#fff" opacity="0.06"></circle><circle cx="1079" cy="347" r="0.9" fill="#fff" opacity="0.17"></circle><circle cx="721" cy="479" r="0.4" fill="#fff" opacity="0.14"></circle><circle cx="1322" cy="439" r="0.8" fill="#fff" opacity="0.14"></circle><circle cx="1373" cy="752" r="0.7" fill="#fff" opacity="0.06"></circle><circle cx="352" cy="580" r="0.9" fill="#fff" opacity="0.06"></circle><circle cx="166" cy="809" r="0.7" fill="#fff" opacity="0.12"></circle><circle cx="694" cy="19" r="1.0" fill="#fff" opacity="0.30"></circle><circle cx="854" cy="781" r="0.4" fill="#fff" opacity="0.05"></circle><circle cx="450" cy="208" r="1.0" fill="#fff" opacity="0.06"></circle><circle cx="554" cy="228" r="1.0" fill="#fff" opacity="0.15"></circle><circle cx="976" cy="271" r="0.8" fill="#fff" opacity="0.07"></circle><circle cx="476" cy="835" r="0.4" fill="#fff" opacity="0.16"></circle><circle cx="465" cy="848" r="1.0" fill="#fff" opacity="0.10"></circle><circle cx="518" cy="361" r="0.6" fill="#fff" opacity="0.16"></circle><circle cx="189" cy="626" r="0.5" fill="#fff" opacity="0.04"></circle><circle cx="603" cy="324" r="0.5" fill="#fff" opacity="0.15"></circle><circle cx="743" cy="783" r="0.6" fill="#fff" opacity="0.08"></circle><circle cx="445" cy="714" r="0.5" fill="#fff" opacity="0.18"></circle><circle cx="1025" cy="640" r="0.9" fill="#fff" opacity="0.05"></circle><circle cx="1069" cy="327" r="0.9" fill="#fff" opacity="0.13"></circle><circle cx="621" cy="553" r="0.4" fill="#fff" opacity="0.04"></circle><circle cx="294" cy="596" r="0.8" fill="#fff" opacity="0.14"></circle><circle cx="514" cy="290" r="0.4" fill="#fff" opacity="0.13"></circle><circle cx="1111" cy="874" r="0.4" fill="#fff" opacity="0.05"></circle><circle cx="729" cy="456" r="0.9" fill="#fff" opacity="0.26"></circle><circle cx="146" cy="267" r="0.8" fill="#fff" opacity="0.09"></circle><circle cx="247" cy="163" r="0.8" fill="#fff" opacity="0.19"></circle><circle cx="1062" cy="313" r="0.4" fill="#fff" opacity="0.06"></circle><circle cx="1417" cy="793" r="1.1" fill="#fff" opacity="0.07"></circle><circle cx="608" cy="549" r="0.9" fill="#fff" opacity="0.08"></circle><circle cx="328" cy="393" r="0.5" fill="#fff" opacity="0.11"></circle><circle cx="865" cy="213" r="0.5" fill="#fff" opacity="0.12"></circle><circle cx="233" cy="543" r="0.4" fill="#fff" opacity="0.07"></circle><circle cx="967" cy="14" r="0.5" fill="#fff" opacity="0.18"></circle><circle cx="1386" cy="451" r="0.6" fill="#fff" opacity="0.06"></circle><circle cx="1158" cy="887" r="0.8" fill="#fff" opacity="0.06"></circle><circle cx="1154" cy="231" r="0.9" fill="#fff" opacity="0.22"></circle><circle cx="537" cy="395" r="1.0" fill="#fff" opacity="0.28"></circle><circle cx="543" cy="351" r="1.1" fill="#fff" opacity="0.17"></circle><circle cx="1271" cy="239" r="0.7" fill="#fff" opacity="0.20"></circle><circle cx="217" cy="640" r="0.6" fill="#fff" opacity="0.06"></circle><circle cx="854" cy="257" r="0.4" fill="#fff" opacity="0.05"></circle><circle cx="194" cy="477" r="0.6" fill="#fff" opacity="0.21"></circle><circle cx="140" cy="239" r="0.5" fill="#fff" opacity="0.15"></circle><circle cx="438" cy="280" r="0.5" fill="#fff" opacity="0.09"></circle><circle cx="309" cy="370" r="0.8" fill="#fff" opacity="0.23"></circle><circle cx="80" cy="134" r="0.8" fill="#fff" opacity="0.12"></circle><circle cx="661" cy="292" r="0.8" fill="#fff" opacity="0.13"></circle><circle cx="815" cy="777" r="1.0" fill="#fff" opacity="0.24"></circle><circle cx="522" cy="49" r="0.8" fill="#fff" opacity="0.05"></circle><circle cx="589" cy="665" r="0.6" fill="#fff" opacity="0.07"></circle><circle cx="779" cy="835" r="0.8" fill="#fff" opacity="0.11"></circle><circle cx="842" cy="489" r="0.8" fill="#fff" opacity="0.12"></circle><circle cx="1357" cy="401" r="0.4" fill="#fff" opacity="0.07"></circle><circle cx="106" cy="266" r="0.7" fill="#fff" opacity="0.20"></circle><circle cx="802" cy="52" r="0.9" fill="#fff" opacity="0.20"></circle><circle cx="1352" cy="83" r="0.5" fill="#fff" opacity="0.14"></circle><circle cx="126" cy="18" r="0.6" fill="#fff" opacity="0.12"></circle><circle cx="697" cy="179" r="0.6" fill="#fff" opacity="0.10"></circle><circle cx="828" cy="63" r="0.6" fill="#fff" opacity="0.20"></circle><circle cx="609" cy="338" r="0.5" fill="#fff" opacity="0.16"></circle><circle cx="23" cy="610" r="0.9" fill="#fff" opacity="0.15"></circle><circle cx="527" cy="520" r="0.9" fill="#fff" opacity="0.10"></circle><circle cx="422" cy="428" r="0.5" fill="#fff" opacity="0.10"></circle><circle cx="585" cy="671" r="0.4" fill="#fff" opacity="0.04"></circle><circle cx="1017" cy="485" r="0.7" fill="#fff" opacity="0.12"></circle><circle cx="1277" cy="613" r="0.4" fill="#fff" opacity="0.10"></circle><circle cx="290" cy="494" r="0.5" fill="#fff" opacity="0.17"></circle><circle cx="602" cy="250" r="1.0" fill="#fff" opacity="0.20"></circle><circle cx="1393" cy="16" r="0.8" fill="#fff" opacity="0.17"></circle><circle cx="661" cy="170" r="0.8" fill="#fff" opacity="0.17"></circle><circle cx="1430" cy="364" r="0.8" fill="#fff" opacity="0.09"></circle><circle cx="42" cy="304" r="1.1" fill="#fff" opacity="0.16"></circle><circle cx="253" cy="784" r="0.9" fill="#fff" opacity="0.14"></circle><circle cx="1078" cy="826" r="0.6" fill="#fff" opacity="0.15"></circle><circle cx="1277" cy="697" r="0.4" fill="#fff" opacity="0.04"></circle><circle cx="12" cy="325" r="1.1" fill="#fff" opacity="0.10"></circle><circle cx="1068" cy="709" r="0.6" fill="#fff" opacity="0.12"></circle><circle cx="1262" cy="339" r="0.7" fill="#fff" opacity="0.12"></circle><circle cx="1275" cy="176" r="0.7" fill="#fff" opacity="0.12"></circle><circle cx="576" cy="17" r="0.6" fill="#fff" opacity="0.10"></circle><circle cx="1000" cy="810" r="0.6" fill="#fff" opacity="0.11"></circle><circle cx="854" cy="842" r="0.5" fill="#fff" opacity="0.12"></circle><circle cx="1272" cy="169" r="0.4" fill="#fff" opacity="0.05"></circle><circle cx="400" cy="318" r="0.6" fill="#fff" opacity="0.13"></circle><circle cx="685" cy="879" r="0.8" fill="#fff" opacity="0.05"></circle><circle cx="498" cy="259" r="0.4" fill="#fff" opacity="0.15"></circle><circle cx="180" cy="454" r="0.9" fill="#fff" opacity="0.28"></circle><circle cx="586" cy="434" r="1.1" fill="#fff" opacity="0.27"></circle><circle cx="307" cy="211" r="1.0" fill="#fff" opacity="0.08"></circle><circle cx="1049" cy="676" r="0.7" fill="#fff" opacity="0.05"></circle><circle cx="462" cy="482" r="1.1" fill="#fff" opacity="0.12"></circle><circle cx="351" cy="213" r="1.0" fill="#fff" opacity="0.06"></circle><circle cx="1008" cy="193" r="0.9" fill="#fff" opacity="0.13"></circle><circle cx="955" cy="601" r="0.9" fill="#fff" opacity="0.12"></circle><circle cx="1219" cy="820" r="0.8" fill="#fff" opacity="0.25"></circle><circle cx="1004" cy="166" r="0.5" fill="#fff" opacity="0.08"></circle><circle cx="899" cy="690" r="0.5" fill="#fff" opacity="0.07"></circle><circle cx="158" cy="178" r="0.8" fill="#fff" opacity="0.24"></circle><polygon points="760.0,215.0 962.1,332.5 962.1,567.5 760.0,685.0 557.9,567.5 557.9,332.5" fill="#171717" opacity="0.92"></polygon><g fill="none" stroke="#fff" stroke-opacity="0.40" stroke-width="1.8" stroke-linejoin="round" stroke-linecap="round"><path d="M760.0 215.0 L962.1 332.5 L962.1 567.5 L760.0 685.0 L557.9 567.5 L557.9 332.5 Z"></path><path d="M557.9 332.5 L760.0 450.0 L962.1 332.5"></path><path d="M760.0 450.0 L760.0 685.0"></path><path d="M659.0 273.8 L861.0 391.2"></path><path d="M861.0 273.8 L659.0 391.2"></path><path d="M659.0 391.2 L659.0 626.2"></path><path d="M557.9 450.0 L760.0 567.5"></path><path d="M861.0 391.2 L861.0 626.2"></path><path d="M760.0 567.5 L962.1 450.0"></path></g><path d="M-40 690 C 300 690, 420 480, 760 450 S 1140 300, 1240 330 S 1420 250, 1500 236" fill="none" stroke="#1D4E89" stroke-width="24" opacity="0.55" filter="url(#gint2)"></path><path d="M-40 690 C 300 690, 420 480, 760 450 S 1140 300, 1240 330 S 1420 250, 1500 236" fill="none" stroke="#5B94DA" stroke-width="7" opacity="0.5" filter="url(#gint)"></path><path d="M-40 690 C 300 690, 420 480, 760 450 S 1140 300, 1240 330 S 1420 250, 1500 236" fill="none" stroke="#5B94DA" stroke-width="2.6"></path><circle cx="760" cy="450" r="6.5" fill="#5B94DA"></circle><circle cx="760" cy="450" r="16" fill="none" stroke="#5B94DA" stroke-opacity="0.55" stroke-width="1"></circle><circle cx="1240" cy="330" r="6.5" fill="#5B94DA"></circle><circle cx="1240" cy="330" r="16" fill="none" stroke="#5B94DA" stroke-opacity="0.55" stroke-width="1"></circle></svg>